<svg width="1090" height="316" viewBox="0 0 1090 316" fill="none" xmlns="http://www.w3.org/2000/svg">
<g filter="url(#filter0_d_17_2344)">
<path d="M0 36C0 29.3726 5.37258 24 12 24H1078C1084.63 24 1090 29.3726 1090 36V304C1090 310.627 1084.63 316 1078 316H12C5.37256 316 0 310.627 0 304V36Z" fill="white" shape-rendering="crispEdges"/>
<path d="M528.69 192.98C542.595 196.553 557.288 195.461 570.512 189.873C583.736 184.285 594.76 174.509 601.889 162.048C609.019 149.587 611.86 135.13 609.975 120.897C608.091 106.665 601.586 93.4451 591.459 83.2687C581.333 73.0922 568.145 66.5221 553.922 64.5679C539.699 62.6136 525.228 65.3833 512.732 72.4513C500.236 79.5194 490.406 90.4948 484.753 103.691C479.1 116.888 477.936 131.576 481.44 145.498L492.266 142.773C489.358 131.222 490.324 119.036 495.014 108.087C499.705 97.1381 507.86 88.032 518.228 82.1678C528.596 76.3036 540.602 74.0056 552.402 75.627C564.203 77.2485 575.144 82.6995 583.546 91.1427C591.948 99.586 597.345 110.554 598.909 122.363C600.472 134.171 598.115 146.166 592.2 156.505C586.285 166.843 577.139 174.954 566.167 179.59C555.195 184.227 543.004 185.133 531.468 182.168L528.69 192.98Z" fill="#35C4EC"/>
<path d="M576.242 71.8828C563.621 65.0395 549.103 62.5294 534.917 64.738C520.732 66.9465 507.664 73.7516 497.721 84.1078C487.778 94.4639 481.51 107.798 479.881 122.062C478.252 136.326 481.351 150.73 488.702 163.061C496.054 175.393 507.251 184.97 520.573 190.32C533.895 195.671 548.605 196.499 562.444 192.678C576.283 188.857 588.484 180.598 597.173 169.17C605.863 157.742 610.56 143.777 610.542 129.42L599.379 129.434C599.394 141.345 595.497 152.932 588.287 162.414C581.078 171.895 570.955 178.748 559.473 181.918C547.991 185.088 535.786 184.401 524.733 179.961C513.68 175.522 504.39 167.576 498.291 157.345C492.192 147.114 489.62 135.163 490.972 123.329C492.324 111.494 497.524 100.431 505.773 91.8389C514.023 83.2467 524.865 77.6006 536.634 75.7682C548.404 73.9358 560.45 76.0184 570.921 81.6961L576.242 71.8828Z" fill="#255577"/>
<path d="M519.654 143.15C517.904 143.15 516.348 142.866 514.984 142.298C513.628 141.722 512.564 140.938 511.791 139.946C511.018 138.953 510.632 137.828 510.632 136.571C510.632 135.601 510.851 134.711 511.291 133.9C511.738 133.082 512.344 132.404 513.109 131.866C513.874 131.321 514.73 130.972 515.677 130.821V130.662C514.435 130.412 513.427 129.809 512.654 128.855C511.882 127.893 511.495 126.775 511.495 125.503C511.495 124.298 511.848 123.226 512.552 122.287C513.257 121.34 514.223 120.597 515.45 120.059C516.685 119.514 518.086 119.241 519.654 119.241C521.223 119.241 522.62 119.514 523.848 120.059C525.083 120.605 526.052 121.351 526.757 122.298C527.461 123.237 527.817 124.306 527.825 125.503C527.817 126.783 527.423 127.9 526.643 128.855C525.863 129.809 524.863 130.412 523.643 130.662V130.821C524.575 130.972 525.42 131.321 526.177 131.866C526.942 132.404 527.548 133.082 527.995 133.9C528.45 134.711 528.681 135.601 528.689 136.571C528.681 137.828 528.291 138.953 527.518 139.946C526.745 140.938 525.677 141.722 524.314 142.298C522.958 142.866 521.404 143.15 519.654 143.15ZM519.654 139.537C520.435 139.537 521.117 139.396 521.7 139.116C522.283 138.828 522.738 138.434 523.064 137.934C523.397 137.427 523.564 136.843 523.564 136.184C523.564 135.51 523.393 134.915 523.052 134.4C522.711 133.878 522.249 133.468 521.666 133.173C521.083 132.87 520.412 132.718 519.654 132.718C518.904 132.718 518.234 132.87 517.643 133.173C517.052 133.468 516.586 133.878 516.245 134.4C515.912 134.915 515.745 135.51 515.745 136.184C515.745 136.843 515.908 137.427 516.234 137.934C516.56 138.434 517.018 138.828 517.609 139.116C518.2 139.396 518.882 139.537 519.654 139.537ZM519.654 129.139C520.306 129.139 520.886 129.006 521.393 128.741C521.901 128.476 522.298 128.109 522.586 127.639C522.874 127.169 523.018 126.628 523.018 126.014C523.018 125.408 522.874 124.878 522.586 124.423C522.298 123.961 521.904 123.601 521.404 123.343C520.904 123.078 520.321 122.946 519.654 122.946C518.995 122.946 518.412 123.078 517.904 123.343C517.397 123.601 516.999 123.961 516.711 124.423C516.431 124.878 516.291 125.408 516.291 126.014C516.291 126.628 516.435 127.169 516.723 127.639C517.011 128.109 517.408 128.476 517.916 128.741C518.423 129.006 519.003 129.139 519.654 129.139ZM541.254 143.343C539.299 143.336 537.618 142.855 536.208 141.9C534.807 140.946 533.727 139.563 532.97 137.753C532.22 135.942 531.849 133.764 531.856 131.218C531.856 128.681 532.231 126.518 532.981 124.73C533.739 122.942 534.818 121.582 536.22 120.65C537.629 119.711 539.307 119.241 541.254 119.241C543.201 119.241 544.875 119.711 546.277 120.65C547.686 121.59 548.769 122.953 549.527 124.741C550.284 126.521 550.659 128.681 550.652 131.218C550.652 133.771 550.273 135.953 549.515 137.764C548.765 139.575 547.69 140.957 546.288 141.912C544.886 142.866 543.208 143.343 541.254 143.343ZM541.254 139.264C542.587 139.264 543.652 138.593 544.447 137.253C545.243 135.912 545.636 133.9 545.629 131.218C545.629 129.453 545.447 127.984 545.083 126.809C544.727 125.635 544.22 124.753 543.561 124.162C542.909 123.571 542.14 123.275 541.254 123.275C539.928 123.275 538.868 123.938 538.072 125.264C537.277 126.59 536.875 128.575 536.868 131.218C536.868 133.006 537.046 134.499 537.402 135.696C537.765 136.885 538.277 137.779 538.936 138.378C539.595 138.968 540.368 139.264 541.254 139.264ZM566.899 138.468V137.241C566.899 136.309 567.096 135.453 567.49 134.673C567.891 133.885 568.471 133.256 569.228 132.787C569.994 132.309 570.925 132.071 572.024 132.071C573.137 132.071 574.073 132.306 574.831 132.775C575.596 133.245 576.172 133.874 576.558 134.662C576.952 135.442 577.149 136.302 577.149 137.241V138.468C577.149 139.4 576.952 140.26 576.558 141.048C576.164 141.828 575.584 142.453 574.819 142.923C574.054 143.4 573.122 143.639 572.024 143.639C570.91 143.639 569.975 143.4 569.217 142.923C568.459 142.453 567.884 141.828 567.49 141.048C567.096 140.26 566.899 139.4 566.899 138.468ZM570.206 137.241V138.468C570.206 139.006 570.334 139.514 570.592 139.991C570.857 140.468 571.334 140.707 572.024 140.707C572.713 140.707 573.183 140.472 573.433 140.003C573.69 139.533 573.819 139.021 573.819 138.468V137.241C573.819 136.688 573.698 136.173 573.456 135.696C573.213 135.218 572.736 134.98 572.024 134.98C571.342 134.98 570.869 135.218 570.603 135.696C570.338 136.173 570.206 136.688 570.206 137.241ZM554.956 125.15V123.923C554.956 122.984 555.156 122.124 555.558 121.343C555.959 120.556 556.539 119.927 557.297 119.457C558.062 118.987 558.986 118.753 560.069 118.753C561.19 118.753 562.13 118.987 562.887 119.457C563.645 119.927 564.221 120.556 564.615 121.343C565.009 122.124 565.206 122.984 565.206 123.923V125.15C565.206 126.09 565.005 126.95 564.603 127.73C564.209 128.51 563.63 129.135 562.865 129.605C562.107 130.067 561.175 130.298 560.069 130.298C558.963 130.298 558.028 130.063 557.262 129.593C556.505 129.116 555.929 128.491 555.535 127.718C555.149 126.938 554.956 126.082 554.956 125.15ZM558.285 123.923V125.15C558.285 125.703 558.414 126.215 558.672 126.684C558.937 127.154 559.403 127.389 560.069 127.389C560.766 127.389 561.24 127.154 561.49 126.684C561.747 126.215 561.876 125.703 561.876 125.15V123.923C561.876 123.37 561.755 122.855 561.512 122.378C561.27 121.9 560.789 121.662 560.069 121.662C559.395 121.662 558.929 121.904 558.672 122.389C558.414 122.874 558.285 123.385 558.285 123.923ZM556.456 142.832L572.456 119.559H575.433L559.433 142.832H556.456Z" fill="#35C4EC"/>
<path d="M413.757 250V226.727H423.075C424.787 226.727 426.215 226.981 427.359 227.489C428.503 227.996 429.363 228.701 429.939 229.602C430.515 230.496 430.803 231.527 430.803 232.693C430.803 233.602 430.621 234.402 430.257 235.091C429.893 235.773 429.393 236.333 428.757 236.773C428.128 237.205 427.409 237.511 426.598 237.693V237.92C427.484 237.958 428.314 238.208 429.087 238.67C429.867 239.133 430.5 239.78 430.984 240.614C431.469 241.439 431.712 242.424 431.712 243.568C431.712 244.803 431.405 245.905 430.791 246.875C430.185 247.837 429.287 248.598 428.098 249.159C426.909 249.72 425.443 250 423.7 250H413.757ZM418.678 245.977H422.689C424.06 245.977 425.06 245.716 425.689 245.193C426.318 244.663 426.632 243.958 426.632 243.08C426.632 242.436 426.477 241.867 426.166 241.375C425.856 240.883 425.412 240.496 424.837 240.216C424.268 239.936 423.59 239.795 422.803 239.795H418.678V245.977ZM418.678 236.466H422.325C423 236.466 423.598 236.348 424.121 236.114C424.651 235.871 425.068 235.53 425.371 235.091C425.681 234.652 425.837 234.125 425.837 233.511C425.837 232.67 425.537 231.992 424.939 231.477C424.348 230.962 423.507 230.705 422.416 230.705H418.678V236.466ZM446.016 242.568V232.545H450.857V250H446.209V246.83H446.027C445.633 247.852 444.978 248.674 444.061 249.295C443.152 249.917 442.042 250.227 440.732 250.227C439.565 250.227 438.538 249.962 437.652 249.432C436.766 248.902 436.072 248.148 435.572 247.17C435.08 246.193 434.83 245.023 434.822 243.659V232.545H439.663V242.795C439.671 243.826 439.947 244.64 440.493 245.239C441.038 245.837 441.769 246.136 442.686 246.136C443.269 246.136 443.815 246.004 444.322 245.739C444.83 245.466 445.239 245.064 445.55 244.534C445.868 244.004 446.023 243.348 446.016 242.568ZM459.57 226.727V250H454.729V226.727H459.57ZM469.879 250.284C468.554 250.284 467.353 249.943 466.277 249.261C465.209 248.572 464.36 247.561 463.732 246.227C463.11 244.886 462.8 243.242 462.8 241.295C462.8 239.295 463.122 237.633 463.766 236.307C464.41 234.973 465.266 233.977 466.334 233.318C467.41 232.652 468.588 232.318 469.868 232.318C470.845 232.318 471.66 232.485 472.311 232.818C472.97 233.144 473.5 233.553 473.902 234.045C474.311 234.53 474.622 235.008 474.834 235.477H474.982V226.727H479.811V250H475.038V247.205H474.834C474.607 247.689 474.285 248.17 473.868 248.648C473.459 249.117 472.925 249.508 472.266 249.818C471.614 250.129 470.819 250.284 469.879 250.284ZM471.413 246.432C472.194 246.432 472.853 246.22 473.391 245.795C473.936 245.364 474.353 244.761 474.641 243.989C474.936 243.216 475.084 242.311 475.084 241.273C475.084 240.235 474.94 239.333 474.652 238.568C474.364 237.803 473.947 237.212 473.402 236.795C472.857 236.379 472.194 236.17 471.413 236.17C470.618 236.17 469.947 236.386 469.402 236.818C468.857 237.25 468.444 237.848 468.163 238.614C467.883 239.379 467.743 240.265 467.743 241.273C467.743 242.288 467.883 243.186 468.163 243.966C468.451 244.739 468.864 245.345 469.402 245.784C469.947 246.216 470.618 246.432 471.413 246.432ZM483.791 250V232.545H488.632V250H483.791ZM486.223 230.295C485.503 230.295 484.886 230.057 484.371 229.58C483.863 229.095 483.609 228.515 483.609 227.841C483.609 227.174 483.863 226.602 484.371 226.125C484.886 225.64 485.503 225.398 486.223 225.398C486.943 225.398 487.556 225.64 488.064 226.125C488.579 226.602 488.837 227.174 488.837 227.841C488.837 228.515 488.579 229.095 488.064 229.58C487.556 230.057 486.943 230.295 486.223 230.295ZM497.351 239.909V250H492.51V232.545H497.124V235.625H497.328C497.714 234.61 498.362 233.807 499.271 233.216C500.18 232.617 501.283 232.318 502.578 232.318C503.79 232.318 504.847 232.583 505.749 233.114C506.65 233.644 507.351 234.402 507.851 235.386C508.351 236.364 508.601 237.53 508.601 238.886V250H503.76V239.75C503.768 238.682 503.495 237.848 502.942 237.25C502.389 236.644 501.627 236.341 500.658 236.341C500.006 236.341 499.43 236.481 498.93 236.761C498.438 237.042 498.052 237.451 497.771 237.989C497.499 238.519 497.358 239.159 497.351 239.909ZM520.28 256.909C518.712 256.909 517.367 256.693 516.246 256.261C515.132 255.837 514.246 255.258 513.587 254.523C512.928 253.788 512.5 252.962 512.303 252.045L516.78 251.443C516.916 251.792 517.132 252.117 517.428 252.42C517.723 252.723 518.113 252.966 518.598 253.148C519.09 253.337 519.689 253.432 520.393 253.432C521.446 253.432 522.314 253.174 522.996 252.659C523.685 252.152 524.03 251.299 524.03 250.102V246.909H523.825C523.613 247.394 523.295 247.852 522.871 248.284C522.446 248.716 521.901 249.068 521.234 249.341C520.568 249.614 519.772 249.75 518.848 249.75C517.537 249.75 516.344 249.447 515.268 248.841C514.2 248.227 513.348 247.292 512.712 246.034C512.083 244.769 511.768 243.17 511.768 241.239C511.768 239.261 512.09 237.61 512.734 236.284C513.378 234.958 514.234 233.966 515.303 233.307C516.378 232.648 517.556 232.318 518.837 232.318C519.814 232.318 520.632 232.485 521.291 232.818C521.95 233.144 522.481 233.553 522.882 234.045C523.291 234.53 523.606 235.008 523.825 235.477H524.007V232.545H528.814V250.17C528.814 251.655 528.45 252.898 527.723 253.898C526.996 254.898 525.988 255.648 524.7 256.148C523.42 256.655 521.946 256.909 520.28 256.909ZM520.382 246.114C521.162 246.114 521.821 245.92 522.359 245.534C522.905 245.14 523.321 244.58 523.609 243.852C523.905 243.117 524.053 242.239 524.053 241.216C524.053 240.193 523.909 239.307 523.621 238.557C523.333 237.799 522.916 237.212 522.371 236.795C521.825 236.379 521.162 236.17 520.382 236.17C519.587 236.17 518.916 236.386 518.371 236.818C517.825 237.242 517.412 237.833 517.132 238.591C516.852 239.348 516.712 240.223 516.712 241.216C516.712 242.223 516.852 243.095 517.132 243.83C517.42 244.557 517.833 245.121 518.371 245.523C518.916 245.917 519.587 246.114 520.382 246.114ZM560.697 234.875H555.72C555.629 234.231 555.444 233.659 555.163 233.159C554.883 232.652 554.523 232.22 554.084 231.864C553.644 231.508 553.137 231.235 552.561 231.045C551.993 230.856 551.375 230.761 550.709 230.761C549.504 230.761 548.455 231.061 547.561 231.659C546.667 232.25 545.974 233.114 545.482 234.25C544.989 235.379 544.743 236.75 544.743 238.364C544.743 240.023 544.989 241.417 545.482 242.545C545.982 243.674 546.679 244.527 547.572 245.102C548.466 245.678 549.5 245.966 550.675 245.966C551.334 245.966 551.944 245.879 552.504 245.705C553.072 245.53 553.576 245.277 554.016 244.943C554.455 244.602 554.819 244.189 555.107 243.705C555.402 243.22 555.607 242.667 555.72 242.045L560.697 242.068C560.569 243.136 560.247 244.167 559.732 245.159C559.224 246.144 558.538 247.027 557.675 247.807C556.819 248.58 555.796 249.193 554.607 249.648C553.425 250.095 552.088 250.318 550.595 250.318C548.519 250.318 546.663 249.848 545.027 248.909C543.398 247.97 542.11 246.61 541.163 244.83C540.224 243.049 539.754 240.894 539.754 238.364C539.754 235.826 540.232 233.667 541.186 231.886C542.141 230.106 543.436 228.75 545.072 227.818C546.709 226.879 548.55 226.409 550.595 226.409C551.944 226.409 553.194 226.598 554.345 226.977C555.504 227.356 556.531 227.909 557.425 228.636C558.319 229.356 559.046 230.239 559.607 231.284C560.175 232.33 560.538 233.527 560.697 234.875ZM569.112 250.33C567.999 250.33 567.006 250.136 566.135 249.75C565.264 249.356 564.574 248.777 564.067 248.011C563.567 247.239 563.317 246.277 563.317 245.125C563.317 244.155 563.495 243.341 563.851 242.682C564.207 242.023 564.692 241.492 565.305 241.091C565.919 240.689 566.616 240.386 567.396 240.182C568.184 239.977 569.01 239.833 569.874 239.75C570.889 239.644 571.707 239.545 572.328 239.455C572.949 239.356 573.4 239.212 573.68 239.023C573.961 238.833 574.101 238.553 574.101 238.182V238.114C574.101 237.394 573.874 236.837 573.419 236.443C572.972 236.049 572.336 235.852 571.51 235.852C570.639 235.852 569.946 236.045 569.43 236.432C568.915 236.811 568.574 237.288 568.408 237.864L563.93 237.5C564.158 236.439 564.605 235.523 565.271 234.75C565.938 233.97 566.798 233.371 567.851 232.955C568.911 232.53 570.139 232.318 571.533 232.318C572.502 232.318 573.43 232.432 574.317 232.659C575.211 232.886 576.002 233.239 576.692 233.716C577.389 234.193 577.938 234.807 578.339 235.557C578.741 236.299 578.942 237.189 578.942 238.227V250H574.351V247.58H574.214C573.934 248.125 573.559 248.606 573.089 249.023C572.62 249.432 572.055 249.754 571.396 249.989C570.737 250.216 569.976 250.33 569.112 250.33ZM570.499 246.989C571.211 246.989 571.839 246.848 572.385 246.568C572.93 246.28 573.358 245.894 573.669 245.409C573.98 244.924 574.135 244.375 574.135 243.761V241.909C573.983 242.008 573.775 242.098 573.51 242.182C573.252 242.258 572.961 242.33 572.635 242.398C572.309 242.458 571.983 242.515 571.658 242.568C571.332 242.614 571.036 242.655 570.771 242.693C570.203 242.777 569.707 242.909 569.283 243.091C568.858 243.273 568.529 243.519 568.294 243.83C568.059 244.133 567.942 244.511 567.942 244.966C567.942 245.625 568.18 246.129 568.658 246.477C569.143 246.818 569.756 246.989 570.499 246.989ZM582.697 256.545V232.545H587.47V235.477H587.686C587.898 235.008 588.205 234.53 588.607 234.045C589.016 233.553 589.546 233.144 590.197 232.818C590.857 232.485 591.675 232.318 592.652 232.318C593.925 232.318 595.099 232.652 596.175 233.318C597.25 233.977 598.11 234.973 598.754 236.307C599.398 237.633 599.72 239.295 599.72 241.295C599.72 243.242 599.406 244.886 598.777 246.227C598.156 247.561 597.307 248.572 596.232 249.261C595.163 249.943 593.966 250.284 592.641 250.284C591.701 250.284 590.902 250.129 590.243 249.818C589.591 249.508 589.057 249.117 588.641 248.648C588.224 248.17 587.906 247.689 587.686 247.205H587.538V256.545H582.697ZM587.436 241.273C587.436 242.311 587.58 243.216 587.868 243.989C588.156 244.761 588.572 245.364 589.118 245.795C589.663 246.22 590.326 246.432 591.107 246.432C591.894 246.432 592.561 246.216 593.107 245.784C593.652 245.345 594.065 244.739 594.345 243.966C594.633 243.186 594.777 242.288 594.777 241.273C594.777 240.265 594.637 239.379 594.357 238.614C594.076 237.848 593.663 237.25 593.118 236.818C592.572 236.386 591.902 236.17 591.107 236.17C590.319 236.17 589.652 236.379 589.107 236.795C588.569 237.212 588.156 237.803 587.868 238.568C587.58 239.333 587.436 240.235 587.436 241.273ZM607.925 250.33C606.811 250.33 605.819 250.136 604.947 249.75C604.076 249.356 603.387 248.777 602.879 248.011C602.379 247.239 602.129 246.277 602.129 245.125C602.129 244.155 602.307 243.341 602.663 242.682C603.019 242.023 603.504 241.492 604.118 241.091C604.732 240.689 605.429 240.386 606.209 240.182C606.997 239.977 607.822 239.833 608.686 239.75C609.701 239.644 610.519 239.545 611.141 239.455C611.762 239.356 612.213 239.212 612.493 239.023C612.773 238.833 612.913 238.553 612.913 238.182V238.114C612.913 237.394 612.686 236.837 612.232 236.443C611.785 236.049 611.148 235.852 610.322 235.852C609.451 235.852 608.758 236.045 608.243 236.432C607.728 236.811 607.387 237.288 607.22 237.864L602.743 237.5C602.97 236.439 603.417 235.523 604.084 234.75C604.75 233.97 605.61 233.371 606.663 232.955C607.724 232.53 608.951 232.318 610.345 232.318C611.315 232.318 612.243 232.432 613.129 232.659C614.023 232.886 614.815 233.239 615.504 233.716C616.201 234.193 616.75 234.807 617.152 235.557C617.554 236.299 617.754 237.189 617.754 238.227V250H613.163V247.58H613.027C612.747 248.125 612.372 248.606 611.902 249.023C611.432 249.432 610.868 249.754 610.209 249.989C609.55 250.216 608.788 250.33 607.925 250.33ZM609.311 246.989C610.023 246.989 610.652 246.848 611.197 246.568C611.743 246.28 612.171 245.894 612.482 245.409C612.792 244.924 612.947 244.375 612.947 243.761V241.909C612.796 242.008 612.588 242.098 612.322 242.182C612.065 242.258 611.773 242.33 611.447 242.398C611.122 242.458 610.796 242.515 610.47 242.568C610.144 242.614 609.849 242.655 609.584 242.693C609.016 242.777 608.519 242.909 608.095 243.091C607.671 243.273 607.341 243.519 607.107 243.83C606.872 244.133 606.754 244.511 606.754 244.966C606.754 245.625 606.993 246.129 607.47 246.477C607.955 246.818 608.569 246.989 609.311 246.989ZM629.396 250.341C627.608 250.341 626.071 249.962 624.783 249.205C623.502 248.439 622.518 247.379 621.828 246.023C621.146 244.667 620.805 243.106 620.805 241.341C620.805 239.553 621.15 237.985 621.839 236.636C622.536 235.28 623.525 234.223 624.805 233.466C626.086 232.701 627.608 232.318 629.374 232.318C630.896 232.318 632.23 232.595 633.374 233.148C634.518 233.701 635.423 234.477 636.089 235.477C636.756 236.477 637.124 237.652 637.192 239H632.624C632.495 238.129 632.154 237.428 631.601 236.898C631.055 236.36 630.339 236.091 629.453 236.091C628.703 236.091 628.048 236.295 627.487 236.705C626.934 237.106 626.502 237.693 626.192 238.466C625.881 239.239 625.726 240.174 625.726 241.273C625.726 242.386 625.877 243.333 626.18 244.114C626.491 244.894 626.927 245.489 627.487 245.898C628.048 246.307 628.703 246.511 629.453 246.511C630.006 246.511 630.502 246.398 630.942 246.17C631.389 245.943 631.756 245.614 632.044 245.182C632.339 244.742 632.533 244.216 632.624 243.602H637.192C637.116 244.936 636.752 246.11 636.101 247.125C635.457 248.133 634.567 248.92 633.43 249.489C632.294 250.057 630.949 250.341 629.396 250.341ZM640.291 250V232.545H645.132V250H640.291ZM642.723 230.295C642.003 230.295 641.386 230.057 640.871 229.58C640.363 229.095 640.109 228.515 640.109 227.841C640.109 227.174 640.363 226.602 640.871 226.125C641.386 225.64 642.003 225.398 642.723 225.398C643.443 225.398 644.056 225.64 644.564 226.125C645.079 226.602 645.337 227.174 645.337 227.841C645.337 228.515 645.079 229.095 644.564 229.58C644.056 230.057 643.443 230.295 642.723 230.295ZM658.294 232.545V236.182H647.783V232.545H658.294ZM650.169 228.364H655.01V244.636C655.01 245.083 655.078 245.432 655.214 245.682C655.351 245.924 655.54 246.095 655.783 246.193C656.033 246.292 656.321 246.341 656.646 246.341C656.874 246.341 657.101 246.322 657.328 246.284C657.555 246.239 657.73 246.205 657.851 246.182L658.612 249.784C658.37 249.86 658.029 249.947 657.589 250.045C657.15 250.152 656.616 250.216 655.987 250.239C654.821 250.284 653.798 250.129 652.919 249.773C652.048 249.417 651.37 248.864 650.885 248.114C650.4 247.364 650.161 246.417 650.169 245.273V228.364ZM664.436 256.545C663.822 256.545 663.247 256.496 662.709 256.398C662.179 256.307 661.739 256.189 661.391 256.045L662.482 252.432C663.05 252.606 663.561 252.701 664.016 252.716C664.478 252.731 664.875 252.625 665.209 252.398C665.55 252.17 665.826 251.784 666.038 251.239L666.322 250.5L660.061 232.545H665.152L668.766 245.364H668.947L672.595 232.545H677.72L670.936 251.886C670.61 252.826 670.167 253.644 669.607 254.341C669.054 255.045 668.353 255.587 667.504 255.966C666.656 256.352 665.633 256.545 664.436 256.545Z" fill="#35C4EC"/>
<path d="M469.817 286V283.724L474.592 279.544C474.95 279.22 475.254 278.924 475.506 278.656C475.757 278.383 475.949 278.11 476.081 277.837C476.213 277.56 476.279 277.26 476.279 276.936C476.279 276.574 476.2 276.265 476.043 276.009C475.885 275.749 475.668 275.549 475.391 275.408C475.114 275.268 474.796 275.197 474.438 275.197C474.076 275.197 473.759 275.272 473.486 275.421C473.213 275.566 473 275.777 472.847 276.054C472.697 276.331 472.623 276.668 472.623 277.064H469.625C469.625 276.173 469.825 275.404 470.226 274.756C470.626 274.109 471.189 273.61 471.913 273.261C472.642 272.907 473.488 272.73 474.451 272.73C475.444 272.73 476.307 272.896 477.04 273.229C477.773 273.561 478.339 274.026 478.74 274.622C479.145 275.214 479.347 275.903 479.347 276.687C479.347 277.185 479.247 277.68 479.047 278.17C478.847 278.66 478.487 279.201 477.967 279.793C477.451 280.386 476.718 281.095 475.768 281.922L474.202 283.366V283.45H479.507V286H469.817ZM486.709 286.32C485.567 286.32 484.583 286.049 483.756 285.508C482.93 284.962 482.292 284.18 481.845 283.162C481.398 282.139 481.176 280.91 481.18 279.474C481.184 278.038 481.408 276.819 481.851 275.817C482.299 274.812 482.934 274.047 483.756 273.523C484.583 272.994 485.567 272.73 486.709 272.73C487.851 272.73 488.836 272.994 489.662 273.523C490.493 274.047 491.133 274.812 491.58 275.817C492.028 276.823 492.249 278.042 492.245 279.474C492.245 280.914 492.021 282.146 491.574 283.168C491.126 284.191 490.489 284.973 489.662 285.514C488.84 286.051 487.856 286.32 486.709 286.32ZM486.709 283.731C487.391 283.731 487.943 283.384 488.365 282.689C488.787 281.99 488.996 280.918 488.991 279.474C488.991 278.528 488.895 277.748 488.704 277.134C488.512 276.516 488.246 276.056 487.905 275.754C487.564 275.451 487.165 275.3 486.709 275.3C486.032 275.3 485.484 275.643 485.067 276.329C484.649 277.011 484.438 278.059 484.434 279.474C484.43 280.433 484.521 281.227 484.709 281.858C484.9 282.489 485.169 282.96 485.514 283.271C485.859 283.577 486.258 283.731 486.709 283.731Z" fill="#35C4EC"/>
<path d="M500.438 272.909L504.081 283.571H504.228L507.872 272.909H510.007L505.296 286H503.014L498.303 272.909H500.438ZM513.634 286.217C513.012 286.217 512.45 286.102 511.947 285.872C511.444 285.638 511.045 285.299 510.751 284.856C510.462 284.413 510.317 283.869 510.317 283.226C510.317 282.672 510.423 282.216 510.636 281.858C510.849 281.5 511.137 281.217 511.499 281.008C511.862 280.799 512.266 280.641 512.714 280.535C513.161 280.428 513.617 280.347 514.082 280.292C514.67 280.224 515.147 280.168 515.513 280.126C515.88 280.079 516.146 280.004 516.312 279.902C516.479 279.8 516.562 279.634 516.562 279.403V279.359C516.562 278.8 516.404 278.368 516.089 278.061C515.778 277.754 515.313 277.601 514.695 277.601C514.052 277.601 513.545 277.744 513.174 278.029C512.808 278.31 512.554 278.624 512.413 278.969L510.617 278.56C510.83 277.963 511.141 277.482 511.55 277.115C511.964 276.744 512.439 276.476 512.976 276.31C513.513 276.139 514.077 276.054 514.67 276.054C515.062 276.054 515.477 276.101 515.916 276.195C516.359 276.284 516.773 276.45 517.156 276.693C517.544 276.936 517.862 277.283 518.109 277.735C518.356 278.183 518.479 278.764 518.479 279.48V286H516.613V284.658H516.536C516.413 284.905 516.227 285.148 515.98 285.386C515.733 285.625 515.415 285.823 515.028 285.981C514.64 286.138 514.175 286.217 513.634 286.217ZM514.05 284.683C514.578 284.683 515.03 284.579 515.405 284.37C515.784 284.161 516.072 283.888 516.268 283.552C516.468 283.211 516.568 282.847 516.568 282.459V281.193C516.5 281.261 516.368 281.325 516.172 281.385C515.98 281.44 515.761 281.489 515.513 281.532C515.266 281.57 515.026 281.607 514.791 281.641C514.557 281.67 514.361 281.696 514.203 281.717C513.832 281.764 513.494 281.843 513.187 281.954C512.884 282.065 512.641 282.224 512.458 282.433C512.279 282.638 512.19 282.911 512.19 283.251C512.19 283.724 512.364 284.082 512.714 284.325C513.063 284.564 513.509 284.683 514.05 284.683ZM525.161 286.198C524.21 286.198 523.392 285.983 522.706 285.553C522.024 285.118 521.5 284.519 521.134 283.756C520.767 282.994 520.584 282.12 520.584 281.136C520.584 280.138 520.771 279.259 521.146 278.496C521.521 277.729 522.05 277.13 522.732 276.7C523.414 276.269 524.217 276.054 525.142 276.054C525.887 276.054 526.552 276.192 527.136 276.469C527.72 276.742 528.191 277.126 528.548 277.62C528.911 278.114 529.126 278.692 529.194 279.352H527.334C527.232 278.892 526.997 278.496 526.631 278.163C526.269 277.831 525.783 277.665 525.173 277.665C524.641 277.665 524.174 277.805 523.774 278.087C523.377 278.364 523.068 278.76 522.847 279.276C522.625 279.787 522.514 280.392 522.514 281.091C522.514 281.807 522.623 282.425 522.84 282.945C523.058 283.464 523.365 283.867 523.761 284.153C524.161 284.438 524.632 284.581 525.173 284.581C525.536 284.581 525.864 284.515 526.158 284.383C526.456 284.246 526.705 284.053 526.906 283.801C527.11 283.55 527.253 283.247 527.334 282.893H529.194C529.126 283.528 528.919 284.095 528.574 284.594C528.229 285.092 527.767 285.484 527.187 285.77C526.612 286.055 525.936 286.198 525.161 286.198ZM534.095 286.217C533.473 286.217 532.911 286.102 532.408 285.872C531.905 285.638 531.506 285.299 531.212 284.856C530.923 284.413 530.778 283.869 530.778 283.226C530.778 282.672 530.884 282.216 531.097 281.858C531.31 281.5 531.598 281.217 531.96 281.008C532.322 280.799 532.727 280.641 533.175 280.535C533.622 280.428 534.078 280.347 534.543 280.292C535.131 280.224 535.608 280.168 535.974 280.126C536.341 280.079 536.607 280.004 536.773 279.902C536.94 279.8 537.023 279.634 537.023 279.403V279.359C537.023 278.8 536.865 278.368 536.55 278.061C536.239 277.754 535.774 277.601 535.156 277.601C534.513 277.601 534.006 277.744 533.635 278.029C533.268 278.31 533.015 278.624 532.874 278.969L531.078 278.56C531.291 277.963 531.602 277.482 532.011 277.115C532.425 276.744 532.9 276.476 533.437 276.31C533.974 276.139 534.538 276.054 535.131 276.054C535.523 276.054 535.938 276.101 536.377 276.195C536.82 276.284 537.234 276.45 537.617 276.693C538.005 276.936 538.322 277.283 538.57 277.735C538.817 278.183 538.94 278.764 538.94 279.48V286H537.074V284.658H536.997C536.874 284.905 536.688 285.148 536.441 285.386C536.194 285.625 535.876 285.823 535.489 285.981C535.101 286.138 534.636 286.217 534.095 286.217ZM534.511 284.683C535.039 284.683 535.491 284.579 535.866 284.37C536.245 284.161 536.533 283.888 536.729 283.552C536.929 283.211 537.029 282.847 537.029 282.459V281.193C536.961 281.261 536.829 281.325 536.633 281.385C536.441 281.44 536.222 281.489 535.974 281.532C535.727 281.57 535.487 281.607 535.252 281.641C535.018 281.67 534.822 281.696 534.664 281.717C534.293 281.764 533.955 281.843 533.648 281.954C533.345 282.065 533.102 282.224 532.919 282.433C532.74 282.638 532.651 282.911 532.651 283.251C532.651 283.724 532.825 284.082 533.175 284.325C533.524 284.564 533.969 284.683 534.511 284.683ZM543.397 280.17V286H541.486V276.182H543.32V277.78H543.442C543.668 277.26 544.021 276.842 544.503 276.527C544.989 276.212 545.6 276.054 546.338 276.054C547.007 276.054 547.593 276.195 548.095 276.476C548.598 276.753 548.988 277.166 549.265 277.716C549.542 278.266 549.681 278.945 549.681 279.755V286H547.769V279.985C547.769 279.273 547.584 278.717 547.213 278.317C546.843 277.912 546.333 277.71 545.686 277.71C545.242 277.71 544.848 277.805 544.503 277.997C544.162 278.189 543.892 278.47 543.691 278.841C543.495 279.207 543.397 279.651 543.397 280.17ZM556.827 276.182V277.716H551.464V276.182H556.827ZM552.902 273.83H554.813V283.117C554.813 283.488 554.869 283.767 554.98 283.955C555.09 284.138 555.233 284.263 555.408 284.332C555.587 284.396 555.781 284.428 555.99 284.428C556.143 284.428 556.277 284.417 556.392 284.396C556.507 284.374 556.597 284.357 556.661 284.344L557.006 285.923C556.895 285.966 556.737 286.009 556.533 286.051C556.328 286.098 556.073 286.124 555.766 286.128C555.263 286.136 554.794 286.047 554.36 285.859C553.925 285.672 553.573 285.382 553.305 284.99C553.036 284.598 552.902 284.106 552.902 283.513V273.83ZM563.858 286V272.909H568.524C569.539 272.909 570.38 273.084 571.049 273.433C571.722 273.783 572.225 274.266 572.558 274.884C572.89 275.498 573.056 276.207 573.056 277.013C573.056 277.814 572.888 278.519 572.551 279.129C572.219 279.734 571.716 280.205 571.043 280.541C570.374 280.878 569.532 281.046 568.518 281.046H564.983V279.346H568.339C568.978 279.346 569.498 279.254 569.899 279.071C570.303 278.888 570.6 278.621 570.787 278.272C570.975 277.923 571.068 277.503 571.068 277.013C571.068 276.518 570.972 276.09 570.781 275.728C570.593 275.366 570.297 275.089 569.892 274.897C569.492 274.701 568.965 274.603 568.313 274.603H565.833V286H563.858ZM570.32 280.094L573.555 286H571.305L568.134 280.094H570.32ZM579.319 286.198C578.398 286.198 577.595 285.987 576.909 285.565C576.223 285.143 575.69 284.553 575.311 283.795C574.932 283.036 574.742 282.15 574.742 281.136C574.742 280.117 574.932 279.227 575.311 278.464C575.69 277.701 576.223 277.109 576.909 276.687C577.595 276.265 578.398 276.054 579.319 276.054C580.239 276.054 581.043 276.265 581.729 276.687C582.415 277.109 582.947 277.701 583.327 278.464C583.706 279.227 583.896 280.117 583.896 281.136C583.896 282.15 583.706 283.036 583.327 283.795C582.947 284.553 582.415 285.143 581.729 285.565C581.043 285.987 580.239 286.198 579.319 286.198ZM579.325 284.594C579.922 284.594 580.416 284.436 580.808 284.121C581.2 283.805 581.49 283.386 581.678 282.862C581.869 282.337 581.965 281.76 581.965 281.129C581.965 280.503 581.869 279.928 581.678 279.403C581.49 278.875 581.2 278.451 580.808 278.131C580.416 277.812 579.922 277.652 579.325 277.652C578.724 277.652 578.226 277.812 577.83 278.131C577.438 278.451 577.146 278.875 576.954 279.403C576.766 279.928 576.673 280.503 576.673 281.129C576.673 281.76 576.766 282.337 576.954 282.862C577.146 283.386 577.438 283.805 577.83 284.121C578.226 284.436 578.724 284.594 579.325 284.594ZM590.165 286.198C589.244 286.198 588.441 285.987 587.755 285.565C587.069 285.143 586.536 284.553 586.157 283.795C585.778 283.036 585.588 282.15 585.588 281.136C585.588 280.117 585.778 279.227 586.157 278.464C586.536 277.701 587.069 277.109 587.755 276.687C588.441 276.265 589.244 276.054 590.165 276.054C591.085 276.054 591.888 276.265 592.574 276.687C593.26 277.109 593.793 277.701 594.172 278.464C594.552 279.227 594.741 280.117 594.741 281.136C594.741 282.15 594.552 283.036 594.172 283.795C593.793 284.553 593.26 285.143 592.574 285.565C591.888 285.987 591.085 286.198 590.165 286.198ZM590.171 284.594C590.768 284.594 591.262 284.436 591.654 284.121C592.046 283.805 592.336 283.386 592.523 282.862C592.715 282.337 592.811 281.76 592.811 281.129C592.811 280.503 592.715 279.928 592.523 279.403C592.336 278.875 592.046 278.451 591.654 278.131C591.262 277.812 590.768 277.652 590.171 277.652C589.57 277.652 589.072 277.812 588.675 278.131C588.283 278.451 587.991 278.875 587.8 279.403C587.612 279.928 587.518 280.503 587.518 281.129C587.518 281.76 587.612 282.337 587.8 282.862C587.991 283.386 588.283 283.805 588.675 284.121C589.072 284.436 589.57 284.594 590.171 284.594ZM596.875 286V276.182H598.709V277.78H598.831C599.035 277.239 599.37 276.817 599.834 276.514C600.299 276.207 600.855 276.054 601.502 276.054C602.159 276.054 602.708 276.207 603.152 276.514C603.599 276.821 603.929 277.243 604.142 277.78H604.245C604.479 277.256 604.852 276.838 605.363 276.527C605.875 276.212 606.484 276.054 607.191 276.054C608.082 276.054 608.809 276.333 609.371 276.891C609.938 277.45 610.221 278.291 610.221 279.416V286H608.31V279.595C608.31 278.93 608.129 278.449 607.767 278.151C607.404 277.852 606.972 277.703 606.469 277.703C605.847 277.703 605.363 277.895 605.018 278.278C604.673 278.658 604.5 279.146 604.5 279.742V286H602.596V279.474C602.596 278.941 602.429 278.513 602.097 278.189C601.765 277.865 601.332 277.703 600.799 277.703C600.437 277.703 600.103 277.799 599.796 277.991C599.493 278.178 599.248 278.44 599.061 278.777C598.877 279.114 598.786 279.504 598.786 279.947V286H596.875ZM620.14 278.579L618.408 278.886C618.335 278.664 618.22 278.453 618.063 278.253C617.909 278.053 617.7 277.888 617.436 277.761C617.172 277.633 616.842 277.569 616.445 277.569C615.904 277.569 615.453 277.69 615.09 277.933C614.728 278.172 614.547 278.481 614.547 278.86C614.547 279.188 614.669 279.452 614.911 279.653C615.154 279.853 615.546 280.017 616.088 280.145L617.647 280.503C618.551 280.712 619.224 281.033 619.667 281.468C620.11 281.903 620.332 282.467 620.332 283.162C620.332 283.75 620.161 284.274 619.82 284.734C619.484 285.19 619.013 285.548 618.408 285.808C617.807 286.068 617.11 286.198 616.318 286.198C615.218 286.198 614.321 285.964 613.627 285.495C612.932 285.022 612.506 284.351 612.348 283.482L614.195 283.2C614.311 283.682 614.547 284.046 614.905 284.293C615.263 284.536 615.73 284.658 616.305 284.658C616.931 284.658 617.432 284.528 617.807 284.268C618.182 284.004 618.369 283.682 618.369 283.303C618.369 282.996 618.254 282.738 618.024 282.529C617.798 282.32 617.451 282.163 616.982 282.056L615.32 281.692C614.404 281.483 613.727 281.151 613.288 280.695C612.853 280.239 612.636 279.661 612.636 278.962C612.636 278.383 612.798 277.876 613.122 277.441C613.445 277.006 613.893 276.668 614.464 276.425C615.035 276.178 615.689 276.054 616.426 276.054C617.487 276.054 618.323 276.284 618.932 276.744C619.541 277.2 619.944 277.812 620.14 278.579Z" fill="#678398"/>
<path d="M12 25H1078C1084.08 25 1089 29.9249 1089 36V304C1089 310.075 1084.08 315 1078 315H12C5.92485 315 1 310.075 1 304V36C1 29.9249 5.92487 25 12 25Z" stroke="#D6DCE0" stroke-width="2" shape-rendering="crispEdges"/>
</g>
<defs>
<filter id="filter0_d_17_2344" x="-16" y="12" width="1122" height="324" filterUnits="userSpaceOnUse" color-interpolation-filters="sRGB">
<feFlood flood-opacity="0" result="BackgroundImageFix"/>
<feColorMatrix in="SourceAlpha" type="matrix" values="0 0 0 0 0 0 0 0 0 0 0 0 0 0 0 0 0 0 127 0" result="hardAlpha"/>
<feOffset dy="4"/>
<feGaussianBlur stdDeviation="8"/>
<feComposite in2="hardAlpha" operator="out"/>
<feColorMatrix type="matrix" values="0 0 0 0 0 0 0 0 0 0 0 0 0 0 0 0 0 0 0.1 0"/>
<feBlend mode="normal" in2="BackgroundImageFix" result="effect1_dropShadow_17_2344"/>
<feBlend mode="normal" in="SourceGraphic" in2="effect1_dropShadow_17_2344" result="shape"/>
</filter>
</defs>
</svg>
