<svg width="1400" height="429" viewBox="0 0 1400 429" fill="none" xmlns="http://www.w3.org/2000/svg">
<g filter="url(#filter0_d_37_490)">
<rect x="157" y="43.5" width="1099" height="343" rx="10" stroke="#B9B9B9" stroke-opacity="0.62" stroke-width="2" shape-rendering="crispEdges"/>
</g>
<path d="M186.101 163V139.727H201.51V143.784H191.021V149.33H200.487V153.386H191.021V163H186.101ZM209.57 139.727V163H204.729V139.727H209.57ZM221.334 163.341C219.569 163.341 218.042 162.966 216.754 162.216C215.474 161.458 214.485 160.405 213.788 159.057C213.091 157.701 212.743 156.129 212.743 154.341C212.743 152.538 213.091 150.962 213.788 149.614C214.485 148.258 215.474 147.205 216.754 146.455C218.042 145.697 219.569 145.318 221.334 145.318C223.099 145.318 224.622 145.697 225.902 146.455C227.19 147.205 228.182 148.258 228.879 149.614C229.576 150.962 229.925 152.538 229.925 154.341C229.925 156.129 229.576 157.701 228.879 159.057C228.182 160.405 227.19 161.458 225.902 162.216C224.622 162.966 223.099 163.341 221.334 163.341ZM221.357 159.591C222.16 159.591 222.83 159.364 223.368 158.909C223.906 158.447 224.311 157.818 224.584 157.023C224.864 156.227 225.004 155.322 225.004 154.307C225.004 153.292 224.864 152.386 224.584 151.591C224.311 150.795 223.906 150.167 223.368 149.705C222.83 149.242 222.16 149.011 221.357 149.011C220.546 149.011 219.864 149.242 219.311 149.705C218.766 150.167 218.353 150.795 218.072 151.591C217.8 152.386 217.663 153.292 217.663 154.307C217.663 155.322 217.8 156.227 218.072 157.023C218.353 157.818 218.766 158.447 219.311 158.909C219.864 159.364 220.546 159.591 221.357 159.591ZM240.959 163.341C239.194 163.341 237.667 162.966 236.379 162.216C235.099 161.458 234.11 160.405 233.413 159.057C232.716 157.701 232.368 156.129 232.368 154.341C232.368 152.538 232.716 150.962 233.413 149.614C234.11 148.258 235.099 147.205 236.379 146.455C237.667 145.697 239.194 145.318 240.959 145.318C242.724 145.318 244.247 145.697 245.527 146.455C246.815 147.205 247.807 148.258 248.504 149.614C249.201 150.962 249.55 152.538 249.55 154.341C249.55 156.129 249.201 157.701 248.504 159.057C247.807 160.405 246.815 161.458 245.527 162.216C244.247 162.966 242.724 163.341 240.959 163.341ZM240.982 159.591C241.785 159.591 242.455 159.364 242.993 158.909C243.531 158.447 243.936 157.818 244.209 157.023C244.489 156.227 244.629 155.322 244.629 154.307C244.629 153.292 244.489 152.386 244.209 151.591C243.936 150.795 243.531 150.167 242.993 149.705C242.455 149.242 241.785 149.011 240.982 149.011C240.171 149.011 239.489 149.242 238.936 149.705C238.391 150.167 237.978 150.795 237.697 151.591C237.425 152.386 237.288 153.292 237.288 154.307C237.288 155.322 237.425 156.227 237.697 157.023C237.978 157.818 238.391 158.447 238.936 158.909C239.489 159.364 240.171 159.591 240.982 159.591ZM252.697 163V145.545H257.391V148.591H257.572C257.891 147.508 258.425 146.689 259.175 146.136C259.925 145.576 260.788 145.295 261.766 145.295C262.008 145.295 262.269 145.311 262.55 145.341C262.83 145.371 263.076 145.413 263.288 145.466V149.761C263.061 149.693 262.747 149.633 262.345 149.58C261.944 149.527 261.576 149.5 261.243 149.5C260.531 149.5 259.894 149.655 259.334 149.966C258.781 150.269 258.341 150.693 258.016 151.239C257.697 151.784 257.538 152.413 257.538 153.125V163H252.697ZM283.277 139.727V163H278.357V144.398H278.22L272.891 147.739V143.375L278.652 139.727H283.277Z" fill="#255577"/>
<rect x="354" y="137.5" width="608.766" height="30" fill="#255577"/>
<rect x="962.766" y="137.5" width="265.234" height="30" fill="#35C4EC"/>
<path d="M183.351 220V196.727H198.76V200.784H188.271V206.33H197.737V210.386H188.271V220H183.351ZM206.82 196.727V220H201.979V196.727H206.82ZM218.584 220.341C216.819 220.341 215.292 219.966 214.004 219.216C212.724 218.458 211.735 217.405 211.038 216.057C210.341 214.701 209.993 213.129 209.993 211.341C209.993 209.538 210.341 207.962 211.038 206.614C211.735 205.258 212.724 204.205 214.004 203.455C215.292 202.697 216.819 202.318 218.584 202.318C220.349 202.318 221.872 202.697 223.152 203.455C224.44 204.205 225.432 205.258 226.129 206.614C226.826 207.962 227.175 209.538 227.175 211.341C227.175 213.129 226.826 214.701 226.129 216.057C225.432 217.405 224.44 218.458 223.152 219.216C221.872 219.966 220.349 220.341 218.584 220.341ZM218.607 216.591C219.41 216.591 220.08 216.364 220.618 215.909C221.156 215.447 221.561 214.818 221.834 214.023C222.114 213.227 222.254 212.322 222.254 211.307C222.254 210.292 222.114 209.386 221.834 208.591C221.561 207.795 221.156 207.167 220.618 206.705C220.08 206.242 219.41 206.011 218.607 206.011C217.796 206.011 217.114 206.242 216.561 206.705C216.016 207.167 215.603 207.795 215.322 208.591C215.05 209.386 214.913 210.292 214.913 211.307C214.913 212.322 215.05 213.227 215.322 214.023C215.603 214.818 216.016 215.447 216.561 215.909C217.114 216.364 217.796 216.591 218.607 216.591ZM238.209 220.341C236.444 220.341 234.917 219.966 233.629 219.216C232.349 218.458 231.36 217.405 230.663 216.057C229.966 214.701 229.618 213.129 229.618 211.341C229.618 209.538 229.966 207.962 230.663 206.614C231.36 205.258 232.349 204.205 233.629 203.455C234.917 202.697 236.444 202.318 238.209 202.318C239.974 202.318 241.497 202.697 242.777 203.455C244.065 204.205 245.057 205.258 245.754 206.614C246.451 207.962 246.8 209.538 246.8 211.341C246.8 213.129 246.451 214.701 245.754 216.057C245.057 217.405 244.065 218.458 242.777 219.216C241.497 219.966 239.974 220.341 238.209 220.341ZM238.232 216.591C239.035 216.591 239.705 216.364 240.243 215.909C240.781 215.447 241.186 214.818 241.459 214.023C241.739 213.227 241.879 212.322 241.879 211.307C241.879 210.292 241.739 209.386 241.459 208.591C241.186 207.795 240.781 207.167 240.243 206.705C239.705 206.242 239.035 206.011 238.232 206.011C237.421 206.011 236.739 206.242 236.186 206.705C235.641 207.167 235.228 207.795 234.947 208.591C234.675 209.386 234.538 210.292 234.538 211.307C234.538 212.322 234.675 213.227 234.947 214.023C235.228 214.818 235.641 215.447 236.186 215.909C236.739 216.364 237.421 216.591 238.232 216.591ZM249.947 220V202.545H254.641V205.591H254.822C255.141 204.508 255.675 203.689 256.425 203.136C257.175 202.576 258.038 202.295 259.016 202.295C259.258 202.295 259.519 202.311 259.8 202.341C260.08 202.371 260.326 202.413 260.538 202.466V206.761C260.311 206.693 259.997 206.633 259.595 206.58C259.194 206.527 258.826 206.5 258.493 206.5C257.781 206.5 257.144 206.655 256.584 206.966C256.031 207.269 255.591 207.693 255.266 208.239C254.947 208.784 254.788 209.413 254.788 210.125V220H249.947ZM270.402 220V216.455L278.686 208.784C279.391 208.102 279.982 207.489 280.459 206.943C280.944 206.398 281.311 205.864 281.561 205.341C281.811 204.811 281.936 204.239 281.936 203.625C281.936 202.943 281.781 202.356 281.47 201.864C281.16 201.364 280.735 200.981 280.197 200.716C279.66 200.443 279.05 200.307 278.368 200.307C277.656 200.307 277.035 200.451 276.504 200.739C275.974 201.027 275.565 201.439 275.277 201.977C274.989 202.515 274.845 203.155 274.845 203.898H270.175C270.175 202.375 270.519 201.053 271.209 199.932C271.898 198.811 272.864 197.943 274.107 197.33C275.349 196.716 276.781 196.409 278.402 196.409C280.069 196.409 281.519 196.705 282.754 197.295C283.997 197.879 284.963 198.689 285.652 199.727C286.341 200.765 286.686 201.955 286.686 203.295C286.686 204.174 286.512 205.042 286.163 205.898C285.822 206.754 285.213 207.705 284.334 208.75C283.455 209.788 282.216 211.034 280.618 212.489L277.22 215.818V215.977H286.993V220H270.402Z" fill="#255577"/>
<rect x="354" y="194.5" width="318.085" height="30" fill="#255577"/>
<rect x="672.085" y="194.5" width="555.915" height="30" fill="#35C4EC"/>
<path d="M183.382 277V253.727H198.791V257.784H188.303V263.33H197.768V267.386H188.303V277H183.382ZM206.851 253.727V277H202.01V253.727H206.851ZM218.615 277.341C216.85 277.341 215.323 276.966 214.036 276.216C212.755 275.458 211.767 274.405 211.07 273.057C210.373 271.701 210.024 270.129 210.024 268.341C210.024 266.538 210.373 264.962 211.07 263.614C211.767 262.258 212.755 261.205 214.036 260.455C215.323 259.697 216.85 259.318 218.615 259.318C220.38 259.318 221.903 259.697 223.183 260.455C224.471 261.205 225.464 262.258 226.161 263.614C226.857 264.962 227.206 266.538 227.206 268.341C227.206 270.129 226.857 271.701 226.161 273.057C225.464 274.405 224.471 275.458 223.183 276.216C221.903 276.966 220.38 277.341 218.615 277.341ZM218.638 273.591C219.441 273.591 220.111 273.364 220.649 272.909C221.187 272.447 221.592 271.818 221.865 271.023C222.145 270.227 222.286 269.322 222.286 268.307C222.286 267.292 222.145 266.386 221.865 265.591C221.592 264.795 221.187 264.167 220.649 263.705C220.111 263.242 219.441 263.011 218.638 263.011C217.827 263.011 217.145 263.242 216.592 263.705C216.047 264.167 215.634 264.795 215.354 265.591C215.081 266.386 214.945 267.292 214.945 268.307C214.945 269.322 215.081 270.227 215.354 271.023C215.634 271.818 216.047 272.447 216.592 272.909C217.145 273.364 217.827 273.591 218.638 273.591ZM238.24 277.341C236.475 277.341 234.948 276.966 233.661 276.216C232.38 275.458 231.392 274.405 230.695 273.057C229.998 271.701 229.649 270.129 229.649 268.341C229.649 266.538 229.998 264.962 230.695 263.614C231.392 262.258 232.38 261.205 233.661 260.455C234.948 259.697 236.475 259.318 238.24 259.318C240.005 259.318 241.528 259.697 242.808 260.455C244.096 261.205 245.089 262.258 245.786 263.614C246.482 264.962 246.831 266.538 246.831 268.341C246.831 270.129 246.482 271.701 245.786 273.057C245.089 274.405 244.096 275.458 242.808 276.216C241.528 276.966 240.005 277.341 238.24 277.341ZM238.263 273.591C239.066 273.591 239.736 273.364 240.274 272.909C240.812 272.447 241.217 271.818 241.49 271.023C241.77 270.227 241.911 269.322 241.911 268.307C241.911 267.292 241.77 266.386 241.49 265.591C241.217 264.795 240.812 264.167 240.274 263.705C239.736 263.242 239.066 263.011 238.263 263.011C237.452 263.011 236.77 263.242 236.217 263.705C235.672 264.167 235.259 264.795 234.979 265.591C234.706 266.386 234.57 267.292 234.57 268.307C234.57 269.322 234.706 270.227 234.979 271.023C235.259 271.818 235.672 272.447 236.217 272.909C236.77 273.364 237.452 273.591 238.263 273.591ZM249.979 277V259.545H254.672V262.591H254.854C255.172 261.508 255.706 260.689 256.456 260.136C257.206 259.576 258.07 259.295 259.047 259.295C259.289 259.295 259.551 259.311 259.831 259.341C260.111 259.371 260.357 259.413 260.57 259.466V263.761C260.342 263.693 260.028 263.633 259.626 263.58C259.225 263.527 258.857 263.5 258.524 263.5C257.812 263.5 257.176 263.655 256.615 263.966C256.062 264.269 255.623 264.693 255.297 265.239C254.979 265.784 254.82 266.413 254.82 267.125V277H249.979ZM279.036 277.318C277.339 277.318 275.827 277.027 274.501 276.443C273.183 275.852 272.142 275.042 271.376 274.011C270.619 272.973 270.229 271.777 270.206 270.42H275.161C275.191 270.989 275.376 271.489 275.717 271.92C276.066 272.345 276.528 272.674 277.104 272.909C277.679 273.144 278.327 273.261 279.047 273.261C279.797 273.261 280.46 273.129 281.036 272.864C281.611 272.598 282.062 272.231 282.388 271.761C282.714 271.292 282.876 270.75 282.876 270.136C282.876 269.515 282.702 268.966 282.354 268.489C282.013 268.004 281.52 267.625 280.876 267.352C280.24 267.08 279.482 266.943 278.604 266.943H276.433V263.33H278.604C279.346 263.33 280.001 263.201 280.57 262.943C281.145 262.686 281.592 262.33 281.911 261.875C282.229 261.413 282.388 260.875 282.388 260.261C282.388 259.678 282.248 259.167 281.967 258.727C281.695 258.28 281.308 257.932 280.808 257.682C280.316 257.432 279.74 257.307 279.081 257.307C278.414 257.307 277.804 257.428 277.251 257.67C276.698 257.905 276.255 258.242 275.922 258.682C275.589 259.121 275.411 259.636 275.388 260.227H270.672C270.695 258.886 271.077 257.705 271.82 256.682C272.562 255.659 273.562 254.86 274.82 254.284C276.085 253.701 277.513 253.409 279.104 253.409C280.71 253.409 282.115 253.701 283.32 254.284C284.524 254.867 285.46 255.655 286.126 256.648C286.801 257.633 287.134 258.739 287.126 259.966C287.134 261.269 286.729 262.356 285.911 263.227C285.1 264.098 284.043 264.652 282.74 264.886V265.068C284.452 265.288 285.755 265.883 286.649 266.852C287.551 267.814 287.998 269.019 287.99 270.466C287.998 271.792 287.615 272.97 286.842 274C286.077 275.03 285.02 275.841 283.672 276.432C282.323 277.023 280.778 277.318 279.036 277.318Z" fill="#255577"/>
<rect x="354" y="251" width="502.085" height="30" fill="#255577"/>
<rect x="856.085" y="251" width="371.915" height="30" fill="#35C4EC"/>
<path d="M183.085 334V310.727H198.494V314.784H188.006V320.33H197.472V324.386H188.006V334H183.085ZM206.554 310.727V334H201.713V310.727H206.554ZM218.318 334.341C216.553 334.341 215.027 333.966 213.739 333.216C212.458 332.458 211.47 331.405 210.773 330.057C210.076 328.701 209.727 327.129 209.727 325.341C209.727 323.538 210.076 321.962 210.773 320.614C211.47 319.258 212.458 318.205 213.739 317.455C215.027 316.697 216.553 316.318 218.318 316.318C220.083 316.318 221.606 316.697 222.886 317.455C224.174 318.205 225.167 319.258 225.864 320.614C226.561 321.962 226.909 323.538 226.909 325.341C226.909 327.129 226.561 328.701 225.864 330.057C225.167 331.405 224.174 332.458 222.886 333.216C221.606 333.966 220.083 334.341 218.318 334.341ZM218.341 330.591C219.144 330.591 219.814 330.364 220.352 329.909C220.89 329.447 221.295 328.818 221.568 328.023C221.848 327.227 221.989 326.322 221.989 325.307C221.989 324.292 221.848 323.386 221.568 322.591C221.295 321.795 220.89 321.167 220.352 320.705C219.814 320.242 219.144 320.011 218.341 320.011C217.53 320.011 216.848 320.242 216.295 320.705C215.75 321.167 215.337 321.795 215.057 322.591C214.784 323.386 214.648 324.292 214.648 325.307C214.648 326.322 214.784 327.227 215.057 328.023C215.337 328.818 215.75 329.447 216.295 329.909C216.848 330.364 217.53 330.591 218.341 330.591ZM237.943 334.341C236.178 334.341 234.652 333.966 233.364 333.216C232.083 332.458 231.095 331.405 230.398 330.057C229.701 328.701 229.352 327.129 229.352 325.341C229.352 323.538 229.701 321.962 230.398 320.614C231.095 319.258 232.083 318.205 233.364 317.455C234.652 316.697 236.178 316.318 237.943 316.318C239.708 316.318 241.231 316.697 242.511 317.455C243.799 318.205 244.792 319.258 245.489 320.614C246.186 321.962 246.534 323.538 246.534 325.341C246.534 327.129 246.186 328.701 245.489 330.057C244.792 331.405 243.799 332.458 242.511 333.216C241.231 333.966 239.708 334.341 237.943 334.341ZM237.966 330.591C238.769 330.591 239.439 330.364 239.977 329.909C240.515 329.447 240.92 328.818 241.193 328.023C241.473 327.227 241.614 326.322 241.614 325.307C241.614 324.292 241.473 323.386 241.193 322.591C240.92 321.795 240.515 321.167 239.977 320.705C239.439 320.242 238.769 320.011 237.966 320.011C237.155 320.011 236.473 320.242 235.92 320.705C235.375 321.167 234.962 321.795 234.682 322.591C234.409 323.386 234.273 324.292 234.273 325.307C234.273 326.322 234.409 327.227 234.682 328.023C234.962 328.818 235.375 329.447 235.92 329.909C236.473 330.364 237.155 330.591 237.966 330.591ZM249.682 334V316.545H254.375V319.591H254.557C254.875 318.508 255.409 317.689 256.159 317.136C256.909 316.576 257.773 316.295 258.75 316.295C258.992 316.295 259.254 316.311 259.534 316.341C259.814 316.371 260.061 316.413 260.273 316.466V320.761C260.045 320.693 259.731 320.633 259.33 320.58C258.928 320.527 258.561 320.5 258.227 320.5C257.515 320.5 256.879 320.655 256.318 320.966C255.765 321.269 255.326 321.693 255 322.239C254.682 322.784 254.523 323.413 254.523 324.125V334H249.682ZM269.784 329.909V326.034L279.5 310.727H282.841V316.091H280.864L274.739 325.784V325.966H288.545V329.909H269.784ZM280.955 334V328.727L281.045 327.011V310.727H285.659V334H280.955Z" fill="#255577"/>
<rect x="354" y="308" width="771.234" height="30" fill="#255577"/>
<rect x="1125.23" y="308" width="102.766" height="30" fill="#35C4EC"/>
<g filter="url(#filter1_d_37_490)">
<rect x="886" y="66.5" width="172" height="49" rx="8" stroke="#8B7E7E" stroke-width="2" shape-rendering="crispEdges"/>
</g>
<g filter="url(#filter2_d_37_490)">
<rect x="1071" y="68.5" width="156" height="49" rx="8" stroke="#8B7E7E" stroke-width="2" shape-rendering="crispEdges"/>
</g>
<g filter="url(#filter3_d_37_490)">
<rect x="355" y="67" width="511" height="49" rx="8" stroke="#8B7E7E" stroke-width="2" shape-rendering="crispEdges"/>
</g>
<path d="M852.508 105.71L842.098 95.3C841.306 95.9861 840.383 96.5205 839.327 96.9031C838.272 97.2857 837.15 97.4771 835.962 97.4771C833.112 97.4771 830.698 96.4875 828.719 94.5083C826.74 92.5291 825.75 90.1409 825.75 87.3437C825.75 84.5465 826.74 82.1583 828.719 80.1791C830.698 78.2 833.099 77.2104 835.923 77.2104C838.72 77.2104 841.102 78.2 843.068 80.1791C845.034 82.1583 846.017 84.5465 846.017 87.3437C846.017 88.4784 845.832 89.5736 845.463 90.6291C845.093 91.6847 844.539 92.6743 843.8 93.5979L854.25 103.969L852.508 105.71ZM835.923 95.1021C838.06 95.1021 839.881 94.3434 841.385 92.826C842.89 91.3087 843.642 89.4812 843.642 87.3437C843.642 85.2062 842.89 83.3788 841.385 81.8614C839.881 80.3441 838.06 79.5854 835.923 79.5854C833.759 79.5854 831.918 80.3441 830.401 81.8614C828.884 83.3788 828.125 85.2062 828.125 87.3437C828.125 89.4812 828.884 91.3087 830.401 92.826C831.918 94.3434 833.759 95.1021 835.923 95.1021V95.1021Z" fill="#35C4EC"/>
<line x1="814.5" y1="114.5" x2="814.5" y2="67.5" stroke="#8B7E7E"/>
<path d="M898.623 98.5V85.4091H907.01V87.397H900.995V90.951H906.434V92.9389H900.995V98.5H898.623ZM911.382 85.4091V98.5H909.068V85.4091H911.382ZM918.044 98.6918C917.085 98.6918 916.254 98.4808 915.551 98.0589C914.848 97.6371 914.302 97.0469 913.915 96.2884C913.531 95.5298 913.339 94.6435 913.339 93.6293C913.339 92.6151 913.531 91.7266 913.915 90.9638C914.302 90.201 914.848 89.6087 915.551 89.1868C916.254 88.7649 917.085 88.554 918.044 88.554C919.003 88.554 919.834 88.7649 920.537 89.1868C921.24 89.6087 921.783 90.201 922.167 90.9638C922.555 91.7266 922.748 92.6151 922.748 93.6293C922.748 94.6435 922.555 95.5298 922.167 96.2884C921.783 97.0469 921.24 97.6371 920.537 98.0589C919.834 98.4808 919.003 98.6918 918.044 98.6918ZM918.057 96.8381C918.577 96.8381 919.011 96.6953 919.361 96.4098C919.71 96.12 919.97 95.7322 920.14 95.2464C920.315 94.7607 920.403 94.2195 920.403 93.6229C920.403 93.022 920.315 92.4787 920.14 91.9929C919.97 91.5028 919.71 91.1129 919.361 90.8232C919.011 90.5334 918.577 90.3885 918.057 90.3885C917.524 90.3885 917.081 90.5334 916.727 90.8232C916.378 91.1129 916.116 91.5028 915.941 91.9929C915.77 92.4787 915.685 93.022 915.685 93.6229C915.685 94.2195 915.77 94.7607 915.941 95.2464C916.116 95.7322 916.378 96.12 916.727 96.4098C917.081 96.6953 917.524 96.8381 918.057 96.8381ZM928.995 98.6918C928.036 98.6918 927.205 98.4808 926.502 98.0589C925.799 97.6371 925.254 97.0469 924.866 96.2884C924.482 95.5298 924.29 94.6435 924.29 93.6293C924.29 92.6151 924.482 91.7266 924.866 90.9638C925.254 90.201 925.799 89.6087 926.502 89.1868C927.205 88.7649 928.036 88.554 928.995 88.554C929.954 88.554 930.785 88.7649 931.488 89.1868C932.191 89.6087 932.734 90.201 933.118 90.9638C933.506 91.7266 933.7 92.6151 933.7 93.6293C933.7 94.6435 933.506 95.5298 933.118 96.2884C932.734 97.0469 932.191 97.6371 931.488 98.0589C930.785 98.4808 929.954 98.6918 928.995 98.6918ZM929.008 96.8381C929.528 96.8381 929.962 96.6953 930.312 96.4098C930.661 96.12 930.921 95.7322 931.092 95.2464C931.266 94.7607 931.354 94.2195 931.354 93.6229C931.354 93.022 931.266 92.4787 931.092 91.9929C930.921 91.5028 930.661 91.1129 930.312 90.8232C929.962 90.5334 929.528 90.3885 929.008 90.3885C928.475 90.3885 928.032 90.5334 927.678 90.8232C927.329 91.1129 927.067 91.5028 926.892 91.9929C926.722 92.4787 926.636 93.022 926.636 93.6229C926.636 94.2195 926.722 94.7607 926.892 95.2464C927.067 95.7322 927.329 96.12 927.678 96.4098C928.032 96.6953 928.475 96.8381 929.008 96.8381ZM935.664 98.5V88.6818H937.907V90.3182H938.009C938.188 89.7514 938.495 89.3146 938.93 89.0078C939.369 88.6967 939.869 88.5412 940.432 88.5412C940.56 88.5412 940.703 88.5476 940.86 88.5604C941.022 88.5689 941.156 88.5838 941.263 88.6051V90.7337C941.165 90.6996 941.009 90.6697 940.796 90.6442C940.588 90.6143 940.385 90.5994 940.189 90.5994C939.767 90.5994 939.388 90.6911 939.051 90.8743C938.719 91.0533 938.457 91.3026 938.265 91.6222C938.073 91.9418 937.977 92.3104 937.977 92.728V98.5H935.664ZM958.125 85.4091V98.5H956.016L949.847 89.5831H949.739V98.5H947.367V85.4091H949.49L955.651 94.3324H955.767V85.4091H958.125ZM966.865 94.3707V88.6818H969.179V98.5H966.935V96.755H966.833C966.611 97.3047 966.247 97.7543 965.74 98.1037C965.237 98.4531 964.617 98.6278 963.88 98.6278C963.236 98.6278 962.667 98.4851 962.173 98.1996C961.683 97.9098 961.299 97.4901 961.022 96.9403C960.745 96.3864 960.607 95.7173 960.607 94.9332V88.6818H962.921V94.5753C962.921 95.1974 963.091 95.6918 963.432 96.0582C963.773 96.4247 964.221 96.608 964.775 96.608C965.115 96.608 965.446 96.5249 965.765 96.3587C966.085 96.1925 966.347 95.9453 966.551 95.6172C966.76 95.2848 966.865 94.8693 966.865 94.3707ZM971.558 98.5V88.6818H973.77V90.3501H973.885C974.089 89.7876 974.428 89.3487 974.901 89.0334C975.374 88.7138 975.939 88.554 976.595 88.554C977.26 88.554 977.82 88.7159 978.276 89.0398C978.736 89.3594 979.06 89.7962 979.248 90.3501H979.35C979.567 89.8047 979.934 89.37 980.449 89.0462C980.969 88.718 981.585 88.554 982.297 88.554C983.2 88.554 983.937 88.8395 984.508 89.4105C985.079 89.9815 985.365 90.8146 985.365 91.9098V98.5H983.045V92.2678C983.045 91.6584 982.883 91.2131 982.559 90.9318C982.235 90.6463 981.839 90.5036 981.37 90.5036C980.812 90.5036 980.375 90.6783 980.059 91.0277C979.748 91.3729 979.593 91.8224 979.593 92.3764V98.5H977.324V92.1719C977.324 91.6648 977.17 91.2599 976.863 90.9574C976.561 90.6548 976.165 90.5036 975.675 90.5036C975.342 90.5036 975.04 90.5888 974.767 90.7592C974.494 90.9254 974.277 91.1619 974.115 91.4688C973.953 91.7713 973.872 92.125 973.872 92.5298V98.5H971.558ZM987.815 98.5V85.4091H990.129V90.3054H990.224C990.344 90.0668 990.512 89.8132 990.729 89.5447C990.947 89.272 991.241 89.0398 991.612 88.848C991.982 88.652 992.455 88.554 993.031 88.554C993.789 88.554 994.473 88.7479 995.082 89.1357C995.696 89.5192 996.182 90.0881 996.54 90.8423C996.902 91.5923 997.083 92.5128 997.083 93.6037C997.083 94.6818 996.906 95.598 996.553 96.3523C996.199 97.1065 995.717 97.6818 995.108 98.0781C994.499 98.4744 993.808 98.6726 993.037 98.6726C992.474 98.6726 992.008 98.5788 991.637 98.3913C991.266 98.2038 990.968 97.978 990.742 97.7138C990.521 97.4453 990.348 97.1918 990.224 96.9531H990.09V98.5H987.815ZM990.084 93.5909C990.084 94.2259 990.173 94.782 990.352 95.2592C990.536 95.7365 990.798 96.1094 991.138 96.3778C991.484 96.642 991.901 96.7741 992.391 96.7741C992.903 96.7741 993.331 96.6378 993.676 96.3651C994.021 96.0881 994.281 95.7109 994.456 95.2337C994.635 94.7521 994.724 94.2045 994.724 93.5909C994.724 92.9815 994.637 92.4403 994.462 91.9673C994.288 91.4943 994.028 91.1236 993.683 90.8551C993.337 90.5866 992.907 90.4524 992.391 90.4524C991.897 90.4524 991.477 90.5824 991.132 90.8423C990.787 91.1023 990.525 91.4666 990.346 91.9354C990.171 92.4041 990.084 92.956 990.084 93.5909ZM1003.4 98.6918C1002.41 98.6918 1001.56 98.4872 1000.85 98.0781C1000.13 97.6648 999.587 97.081 999.204 96.3267C998.82 95.5682 998.628 94.6754 998.628 93.6484C998.628 92.6385 998.82 91.7521 999.204 90.9893C999.591 90.2223 1000.13 89.6257 1000.83 89.1996C1001.52 88.7692 1002.34 88.554 1003.28 88.554C1003.88 88.554 1004.45 88.652 1004.99 88.848C1005.53 89.0398 1006.01 89.3381 1006.42 89.7429C1006.84 90.1477 1007.17 90.6634 1007.4 91.2898C1007.64 91.9119 1007.76 92.6534 1007.76 93.5142V94.2237H999.715V92.6641H1005.54C1005.54 92.2209 1005.44 91.8267 1005.26 91.4815C1005.07 91.1321 1004.81 90.8572 1004.47 90.657C1004.14 90.4567 1003.75 90.3565 1003.31 90.3565C1002.83 90.3565 1002.42 90.4716 1002.06 90.7017C1001.7 90.9276 1001.42 91.2259 1001.22 91.5966C1001.03 91.9631 1000.93 92.3658 1000.92 92.8047V94.1662C1000.92 94.7372 1001.03 95.2273 1001.24 95.6364C1001.45 96.0412 1001.74 96.3523 1002.11 96.5696C1002.49 96.7827 1002.93 96.8892 1003.43 96.8892C1003.77 96.8892 1004.07 96.8423 1004.34 96.7486C1004.62 96.6506 1004.85 96.5078 1005.05 96.3203C1005.25 96.1328 1005.4 95.9006 1005.51 95.6236L1007.67 95.8665C1007.53 96.4375 1007.27 96.9361 1006.89 97.3622C1006.51 97.7841 1006.02 98.1122 1005.43 98.3466C1004.84 98.5767 1004.16 98.6918 1003.4 98.6918ZM1009.72 98.5V88.6818H1011.96V90.3182H1012.07C1012.25 89.7514 1012.55 89.3146 1012.99 89.0078C1013.43 88.6967 1013.93 88.5412 1014.49 88.5412C1014.62 88.5412 1014.76 88.5476 1014.92 88.5604C1015.08 88.5689 1015.21 88.5838 1015.32 88.6051V90.7337C1015.22 90.6996 1015.07 90.6697 1014.85 90.6442C1014.64 90.6143 1014.44 90.5994 1014.25 90.5994C1013.82 90.5994 1013.44 90.6911 1013.11 90.8743C1012.78 91.0533 1012.51 91.3026 1012.32 91.6222C1012.13 91.9418 1012.03 92.3104 1012.03 92.728V98.5H1009.72Z" fill="#35C4EC"/>
<path d="M521.67 99V85.9091H530.184V87.897H524.042V91.451H529.743V93.4389H524.042V97.0121H530.235V99H521.67ZM534.815 93.2472V99H532.501V89.1818H534.713V90.8501H534.828C535.054 90.3004 535.414 89.8636 535.908 89.5398C536.407 89.2159 537.023 89.054 537.756 89.054C538.433 89.054 539.023 89.1989 539.526 89.4886C540.033 89.7784 540.425 90.1982 540.702 90.7479C540.984 91.2976 541.122 91.9645 541.118 92.7486V99H538.804V93.1065C538.804 92.4503 538.634 91.9368 538.293 91.5661C537.956 91.1953 537.489 91.0099 536.893 91.0099C536.488 91.0099 536.128 91.0994 535.812 91.2784C535.501 91.4531 535.256 91.7067 535.077 92.0391C534.903 92.3714 534.815 92.7741 534.815 93.2472ZM548.373 89.1818V90.9716H542.729V89.1818H548.373ZM544.122 86.8295H546.436V96.0469C546.436 96.358 546.483 96.5966 546.577 96.7628C546.675 96.9247 546.803 97.0355 546.96 97.0952C547.118 97.1548 547.293 97.1847 547.484 97.1847C547.629 97.1847 547.761 97.174 547.881 97.1527C548.004 97.1314 548.098 97.1122 548.162 97.0952L548.552 98.9041C548.428 98.9467 548.251 98.9936 548.021 99.0447C547.795 99.0959 547.518 99.1257 547.19 99.1342C546.611 99.1513 546.089 99.0639 545.624 98.8722C545.16 98.6761 544.791 98.3736 544.518 97.9645C544.25 97.5554 544.118 97.044 544.122 96.4304V86.8295ZM554.549 99.1918C553.565 99.1918 552.715 98.9872 551.999 98.5781C551.287 98.1648 550.74 97.581 550.356 96.8267C549.972 96.0682 549.781 95.1754 549.781 94.1484C549.781 93.1385 549.972 92.2521 550.356 91.4893C550.744 90.7223 551.285 90.1257 551.98 89.6996C552.674 89.2692 553.49 89.054 554.428 89.054C555.033 89.054 555.604 89.152 556.141 89.348C556.682 89.5398 557.159 89.8381 557.573 90.2429C557.99 90.6477 558.318 91.1634 558.557 91.7898C558.796 92.4119 558.915 93.1534 558.915 94.0142V94.7237H550.867V93.1641H556.697C556.693 92.7209 556.597 92.3267 556.409 91.9815C556.222 91.6321 555.96 91.3572 555.623 91.157C555.291 90.9567 554.903 90.8565 554.46 90.8565C553.987 90.8565 553.571 90.9716 553.213 91.2017C552.855 91.4276 552.576 91.7259 552.376 92.0966C552.18 92.4631 552.08 92.8658 552.075 93.3047V94.6662C552.075 95.2372 552.18 95.7273 552.389 96.1364C552.597 96.5412 552.889 96.8523 553.264 97.0696C553.639 97.2827 554.078 97.3892 554.581 97.3892C554.918 97.3892 555.222 97.3423 555.495 97.2486C555.768 97.1506 556.004 97.0078 556.205 96.8203C556.405 96.6328 556.556 96.4006 556.659 96.1236L558.819 96.3665C558.683 96.9375 558.423 97.4361 558.039 97.8622C557.66 98.2841 557.174 98.6122 556.582 98.8466C555.99 99.0767 555.312 99.1918 554.549 99.1918ZM560.873 99V89.1818H563.116V90.8182H563.218C563.397 90.2514 563.704 89.8146 564.139 89.5078C564.578 89.1967 565.078 89.0412 565.641 89.0412C565.769 89.0412 565.912 89.0476 566.069 89.0604C566.231 89.0689 566.365 89.0838 566.472 89.1051V91.2337C566.374 91.1996 566.218 91.1697 566.005 91.1442C565.797 91.1143 565.594 91.0994 565.398 91.0994C564.976 91.0994 564.597 91.1911 564.26 91.3743C563.928 91.5533 563.666 91.8026 563.474 92.1222C563.282 92.4418 563.186 92.8104 563.186 93.228V99H560.873ZM572.576 99V85.9091H580.963V87.897H574.948V91.451H580.387V93.4389H574.948V99H572.576ZM585.335 85.9091V99H583.021V85.9091H585.335ZM591.997 99.1918C591.038 99.1918 590.207 98.9808 589.504 98.5589C588.801 98.1371 588.256 97.5469 587.868 96.7884C587.484 96.0298 587.292 95.1435 587.292 94.1293C587.292 93.1151 587.484 92.2266 587.868 91.4638C588.256 90.701 588.801 90.1087 589.504 89.6868C590.207 89.2649 591.038 89.054 591.997 89.054C592.956 89.054 593.787 89.2649 594.49 89.6868C595.193 90.1087 595.736 90.701 596.12 91.4638C596.508 92.2266 596.702 93.1151 596.702 94.1293C596.702 95.1435 596.508 96.0298 596.12 96.7884C595.736 97.5469 595.193 98.1371 594.49 98.5589C593.787 98.9808 592.956 99.1918 591.997 99.1918ZM592.01 97.3381C592.53 97.3381 592.964 97.1953 593.314 96.9098C593.663 96.62 593.923 96.2322 594.094 95.7464C594.268 95.2607 594.356 94.7195 594.356 94.1229C594.356 93.522 594.268 92.9787 594.094 92.4929C593.923 92.0028 593.663 91.6129 593.314 91.3232C592.964 91.0334 592.53 90.8885 592.01 90.8885C591.477 90.8885 591.034 91.0334 590.68 91.3232C590.331 91.6129 590.069 92.0028 589.894 92.4929C589.724 92.9787 589.638 93.522 589.638 94.1229C589.638 94.7195 589.724 95.2607 589.894 95.7464C590.069 96.2322 590.331 96.62 590.68 96.9098C591.034 97.1953 591.477 97.3381 592.01 97.3381ZM602.948 99.1918C601.989 99.1918 601.158 98.9808 600.455 98.5589C599.752 98.1371 599.207 97.5469 598.819 96.7884C598.435 96.0298 598.244 95.1435 598.244 94.1293C598.244 93.1151 598.435 92.2266 598.819 91.4638C599.207 90.701 599.752 90.1087 600.455 89.6868C601.158 89.2649 601.989 89.054 602.948 89.054C603.907 89.054 604.738 89.2649 605.441 89.6868C606.144 90.1087 606.688 90.701 607.071 91.4638C607.459 92.2266 607.653 93.1151 607.653 94.1293C607.653 95.1435 607.459 96.0298 607.071 96.7884C606.688 97.5469 606.144 98.1371 605.441 98.5589C604.738 98.9808 603.907 99.1918 602.948 99.1918ZM602.961 97.3381C603.481 97.3381 603.915 97.1953 604.265 96.9098C604.614 96.62 604.874 96.2322 605.045 95.7464C605.219 95.2607 605.307 94.7195 605.307 94.1229C605.307 93.522 605.219 92.9787 605.045 92.4929C604.874 92.0028 604.614 91.6129 604.265 91.3232C603.915 91.0334 603.481 90.8885 602.961 90.8885C602.428 90.8885 601.985 91.0334 601.631 91.3232C601.282 91.6129 601.02 92.0028 600.845 92.4929C600.675 92.9787 600.589 93.522 600.589 94.1229C600.589 94.7195 600.675 95.2607 600.845 95.7464C601.02 96.2322 601.282 96.62 601.631 96.9098C601.985 97.1953 602.428 97.3381 602.961 97.3381ZM609.617 99V89.1818H611.86V90.8182H611.963C612.142 90.2514 612.448 89.8146 612.883 89.5078C613.322 89.1967 613.823 89.0412 614.385 89.0412C614.513 89.0412 614.656 89.0476 614.813 89.0604C614.975 89.0689 615.11 89.0838 615.216 89.1051V91.2337C615.118 91.1996 614.963 91.1697 614.749 91.1442C614.541 91.1143 614.338 91.0994 614.142 91.0994C613.72 91.0994 613.341 91.1911 613.004 91.3743C612.672 91.5533 612.41 91.8026 612.218 92.1222C612.026 92.4418 611.931 92.8104 611.931 93.228V99H609.617ZM632.078 85.9091V99H629.969L623.801 90.0831H623.692V99H621.32V85.9091H623.443L629.605 94.8324H629.72V85.9091H632.078ZM640.818 94.8707V89.1818H643.132V99H640.888V97.255H640.786C640.564 97.8047 640.2 98.2543 639.693 98.6037C639.19 98.9531 638.57 99.1278 637.833 99.1278C637.189 99.1278 636.62 98.9851 636.126 98.6996C635.636 98.4098 635.252 97.9901 634.975 97.4403C634.699 96.8864 634.56 96.2173 634.56 95.4332V89.1818H636.874V95.0753C636.874 95.6974 637.044 96.1918 637.385 96.5582C637.726 96.9247 638.174 97.108 638.728 97.108C639.069 97.108 639.399 97.0249 639.718 96.8587C640.038 96.6925 640.3 96.4453 640.505 96.1172C640.713 95.7848 640.818 95.3693 640.818 94.8707ZM645.511 99V89.1818H647.723V90.8501H647.838C648.042 90.2876 648.381 89.8487 648.854 89.5334C649.327 89.2138 649.892 89.054 650.548 89.054C651.213 89.054 651.773 89.2159 652.229 89.5398C652.689 89.8594 653.013 90.2962 653.201 90.8501H653.303C653.52 90.3047 653.887 89.87 654.403 89.5462C654.922 89.218 655.538 89.054 656.25 89.054C657.153 89.054 657.89 89.3395 658.461 89.9105C659.032 90.4815 659.318 91.3146 659.318 92.4098V99H656.998V92.7678C656.998 92.1584 656.836 91.7131 656.512 91.4318C656.188 91.1463 655.792 91.0036 655.323 91.0036C654.765 91.0036 654.328 91.1783 654.013 91.5277C653.702 91.8729 653.546 92.3224 653.546 92.8764V99H651.277V92.6719C651.277 92.1648 651.123 91.7599 650.817 91.4574C650.514 91.1548 650.118 91.0036 649.628 91.0036C649.295 91.0036 648.993 91.0888 648.72 91.2592C648.447 91.4254 648.23 91.6619 648.068 91.9688C647.906 92.2713 647.825 92.625 647.825 93.0298V99H645.511ZM661.768 99V85.9091H664.082V90.8054H664.178C664.297 90.5668 664.465 90.3132 664.683 90.0447C664.9 89.772 665.194 89.5398 665.565 89.348C665.935 89.152 666.408 89.054 666.984 89.054C667.742 89.054 668.426 89.2479 669.036 89.6357C669.649 90.0192 670.135 90.5881 670.493 91.3423C670.855 92.0923 671.036 93.0128 671.036 94.1037C671.036 95.1818 670.859 96.098 670.506 96.8523C670.152 97.6065 669.67 98.1818 669.061 98.5781C668.452 98.9744 667.761 99.1726 666.99 99.1726C666.428 99.1726 665.961 99.0788 665.59 98.8913C665.219 98.7038 664.921 98.478 664.695 98.2138C664.474 97.9453 664.301 97.6918 664.178 97.4531H664.043V99H661.768ZM664.037 94.0909C664.037 94.7259 664.126 95.282 664.305 95.7592C664.489 96.2365 664.751 96.6094 665.092 96.8778C665.437 97.142 665.854 97.2741 666.344 97.2741C666.856 97.2741 667.284 97.1378 667.629 96.8651C667.974 96.5881 668.234 96.2109 668.409 95.7337C668.588 95.2521 668.678 94.7045 668.678 94.0909C668.678 93.4815 668.59 92.9403 668.415 92.4673C668.241 91.9943 667.981 91.6236 667.636 91.3551C667.29 91.0866 666.86 90.9524 666.344 90.9524C665.85 90.9524 665.43 91.0824 665.085 91.3423C664.74 91.6023 664.478 91.9666 664.299 92.4354C664.124 92.9041 664.037 93.456 664.037 94.0909ZM677.35 99.1918C676.366 99.1918 675.515 98.9872 674.8 98.5781C674.088 98.1648 673.54 97.581 673.157 96.8267C672.773 96.0682 672.581 95.1754 672.581 94.1484C672.581 93.1385 672.773 92.2521 673.157 91.4893C673.545 90.7223 674.086 90.1257 674.78 89.6996C675.475 89.2692 676.291 89.054 677.229 89.054C677.834 89.054 678.405 89.152 678.942 89.348C679.483 89.5398 679.96 89.8381 680.373 90.2429C680.791 90.6477 681.119 91.1634 681.358 91.7898C681.596 92.4119 681.716 93.1534 681.716 94.0142V94.7237H673.668V93.1641H679.498C679.493 92.7209 679.398 92.3267 679.21 91.9815C679.023 91.6321 678.76 91.3572 678.424 91.157C678.091 90.9567 677.704 90.8565 677.26 90.8565C676.787 90.8565 676.372 90.9716 676.014 91.2017C675.656 91.4276 675.377 91.7259 675.177 92.0966C674.981 92.4631 674.881 92.8658 674.876 93.3047V94.6662C674.876 95.2372 674.981 95.7273 675.189 96.1364C675.398 96.5412 675.69 96.8523 676.065 97.0696C676.44 97.2827 676.879 97.3892 677.382 97.3892C677.719 97.3892 678.023 97.3423 678.296 97.2486C678.569 97.1506 678.805 97.0078 679.006 96.8203C679.206 96.6328 679.357 96.4006 679.459 96.1236L681.62 96.3665C681.483 96.9375 681.224 97.4361 680.84 97.8622C680.461 98.2841 679.975 98.6122 679.383 98.8466C678.79 99.0767 678.113 99.1918 677.35 99.1918ZM683.673 99V89.1818H685.917V90.8182H686.019C686.198 90.2514 686.505 89.8146 686.94 89.5078C687.379 89.1967 687.879 89.0412 688.442 89.0412C688.57 89.0412 688.712 89.0476 688.87 89.0604C689.032 89.0689 689.166 89.0838 689.273 89.1051V91.2337C689.175 91.1996 689.019 91.1697 688.806 91.1442C688.597 91.1143 688.395 91.0994 688.199 91.0994C687.777 91.0994 687.398 91.1911 687.061 91.3743C686.729 91.5533 686.467 91.8026 686.275 92.1222C686.083 92.4418 685.987 92.8104 685.987 93.228V99H683.673Z" fill="#A0A9AC" fill-opacity="0.44"/>
<path d="M1085.46 98.5H1082.93L1087.54 85.4091H1090.47L1095.08 98.5H1092.55L1089.05 88.0938H1088.95L1085.46 98.5ZM1085.54 93.3672H1092.45V95.272H1085.54V93.3672ZM1104.3 91.277L1102.19 91.5071C1102.14 91.294 1102.03 91.0938 1101.88 90.9062C1101.74 90.7188 1101.54 90.5675 1101.29 90.4524C1101.05 90.3374 1100.74 90.2798 1100.39 90.2798C1099.9 90.2798 1099.5 90.3842 1099.17 90.593C1098.85 90.8018 1098.69 91.0724 1098.69 91.4048C1098.69 91.6903 1098.79 91.9226 1099.01 92.1016C1099.22 92.2805 1099.58 92.4276 1100.08 92.5426L1101.75 92.9006C1102.68 93.1009 1103.37 93.4183 1103.82 93.853C1104.28 94.2876 1104.51 94.8565 1104.52 95.5597C1104.51 96.1776 1104.33 96.723 1103.97 97.196C1103.62 97.6648 1103.13 98.0312 1102.5 98.2955C1101.86 98.5597 1101.14 98.6918 1100.32 98.6918C1099.12 98.6918 1098.15 98.4403 1097.42 97.9375C1096.69 97.4304 1096.25 96.7251 1096.11 95.8217L1098.37 95.6044C1098.47 96.0476 1098.69 96.3821 1099.02 96.608C1099.35 96.8338 1099.78 96.9467 1100.32 96.9467C1100.87 96.9467 1101.31 96.8338 1101.64 96.608C1101.98 96.3821 1102.14 96.103 1102.14 95.7706C1102.14 95.4893 1102.04 95.2571 1101.82 95.0739C1101.6 94.8906 1101.27 94.75 1100.82 94.652L1099.15 94.3004C1098.2 94.1044 1097.51 93.7741 1097.06 93.3097C1096.6 92.8409 1096.38 92.2486 1096.38 91.5327C1096.38 90.9276 1096.54 90.4034 1096.88 89.9602C1097.21 89.5128 1097.68 89.1676 1098.28 88.9247C1098.88 88.6776 1099.57 88.554 1100.35 88.554C1101.5 88.554 1102.41 88.799 1103.07 89.2891C1103.74 89.7791 1104.15 90.4418 1104.3 91.277ZM1110.71 98.6918C1109.73 98.6918 1108.88 98.4766 1108.18 98.0462C1107.48 97.6158 1106.94 97.0213 1106.56 96.2628C1106.19 95.5 1106 94.6222 1106 93.6293C1106 92.6321 1106.19 91.7521 1106.58 90.9893C1106.96 90.2223 1107.5 89.6257 1108.2 89.1996C1108.9 88.7692 1109.73 88.554 1110.69 88.554C1111.49 88.554 1112.2 88.701 1112.81 88.995C1113.43 89.2848 1113.92 89.696 1114.29 90.2287C1114.65 90.7571 1114.86 91.375 1114.91 92.0824H1112.7C1112.61 91.6094 1112.4 91.2152 1112.06 90.8999C1111.73 90.5803 1111.28 90.4205 1110.73 90.4205C1110.25 90.4205 1109.84 90.5483 1109.48 90.804C1109.12 91.0554 1108.84 91.4176 1108.64 91.8906C1108.45 92.3636 1108.35 92.9304 1108.35 93.5909C1108.35 94.2599 1108.45 94.8352 1108.64 95.3168C1108.84 95.794 1109.11 96.1626 1109.47 96.4226C1109.82 96.6783 1110.24 96.8061 1110.73 96.8061C1111.07 96.8061 1111.37 96.7422 1111.64 96.6143C1111.91 96.4822 1112.14 96.2926 1112.32 96.0455C1112.51 95.7983 1112.63 95.4979 1112.7 95.1442H1114.91C1114.86 95.8388 1114.65 96.4545 1114.3 96.9915C1113.94 97.5241 1113.46 97.9418 1112.85 98.2443C1112.24 98.5426 1111.53 98.6918 1110.71 98.6918ZM1121.16 98.6918C1120.17 98.6918 1119.32 98.4872 1118.61 98.0781C1117.9 97.6648 1117.35 97.081 1116.97 96.3267C1116.58 95.5682 1116.39 94.6754 1116.39 93.6484C1116.39 92.6385 1116.58 91.7521 1116.97 90.9893C1117.35 90.2223 1117.89 89.6257 1118.59 89.1996C1119.28 88.7692 1120.1 88.554 1121.04 88.554C1121.64 88.554 1122.21 88.652 1122.75 88.848C1123.29 89.0398 1123.77 89.3381 1124.18 89.7429C1124.6 90.1477 1124.93 90.6634 1125.17 91.2898C1125.41 91.9119 1125.52 92.6534 1125.52 93.5142V94.2237H1117.48V92.6641H1123.31C1123.3 92.2209 1123.21 91.8267 1123.02 91.4815C1122.83 91.1321 1122.57 90.8572 1122.23 90.657C1121.9 90.4567 1121.51 90.3565 1121.07 90.3565C1120.6 90.3565 1120.18 90.4716 1119.82 90.7017C1119.46 90.9276 1119.19 91.2259 1118.99 91.5966C1118.79 91.9631 1118.69 92.3658 1118.68 92.8047V94.1662C1118.68 94.7372 1118.79 95.2273 1119 95.6364C1119.21 96.0412 1119.5 96.3523 1119.87 96.5696C1120.25 96.7827 1120.69 96.8892 1121.19 96.8892C1121.53 96.8892 1121.83 96.8423 1122.1 96.7486C1122.38 96.6506 1122.61 96.5078 1122.81 96.3203C1123.01 96.1328 1123.17 95.9006 1123.27 95.6236L1125.43 95.8665C1125.29 96.4375 1125.03 96.9361 1124.65 97.3622C1124.27 97.7841 1123.78 98.1122 1123.19 98.3466C1122.6 98.5767 1121.92 98.6918 1121.16 98.6918ZM1129.8 92.7472V98.5H1127.48V88.6818H1129.69V90.3501H1129.81C1130.03 89.8004 1130.39 89.3636 1130.89 89.0398C1131.39 88.7159 1132 88.554 1132.74 88.554C1133.41 88.554 1134 88.6989 1134.51 88.9886C1135.01 89.2784 1135.41 89.6982 1135.68 90.2479C1135.96 90.7976 1136.1 91.4645 1136.1 92.2486V98.5H1133.78V92.6065C1133.78 91.9503 1133.61 91.4368 1133.27 91.0661C1132.94 90.6953 1132.47 90.5099 1131.87 90.5099C1131.47 90.5099 1131.11 90.5994 1130.79 90.7784C1130.48 90.9531 1130.24 91.2067 1130.06 91.5391C1129.88 91.8714 1129.8 92.2741 1129.8 92.7472ZM1142.09 98.6726C1141.32 98.6726 1140.63 98.4744 1140.02 98.0781C1139.41 97.6818 1138.93 97.1065 1138.58 96.3523C1138.22 95.598 1138.05 94.6818 1138.05 93.6037C1138.05 92.5128 1138.23 91.5923 1138.58 90.8423C1138.95 90.0881 1139.44 89.5192 1140.05 89.1357C1140.66 88.7479 1141.35 88.554 1142.1 88.554C1142.68 88.554 1143.15 88.652 1143.52 88.848C1143.89 89.0398 1144.18 89.272 1144.4 89.5447C1144.62 89.8132 1144.79 90.0668 1144.91 90.3054H1145V85.4091H1147.32V98.5H1145.05V96.9531H1144.91C1144.79 97.1918 1144.61 97.4453 1144.39 97.7138C1144.16 97.978 1143.86 98.2038 1143.49 98.3913C1143.12 98.5788 1142.66 98.6726 1142.09 98.6726ZM1142.74 96.7741C1143.23 96.7741 1143.65 96.642 1143.99 96.3778C1144.34 96.1094 1144.6 95.7365 1144.78 95.2592C1144.96 94.782 1145.05 94.2259 1145.05 93.5909C1145.05 92.956 1144.96 92.4041 1144.78 91.9354C1144.6 91.4666 1144.34 91.1023 1144 90.8423C1143.66 90.5824 1143.24 90.4524 1142.74 90.4524C1142.22 90.4524 1141.79 90.5866 1141.45 90.8551C1141.1 91.1236 1140.84 91.4943 1140.67 91.9673C1140.49 92.4403 1140.41 92.9815 1140.41 93.5909C1140.41 94.2045 1140.49 94.7521 1140.67 95.2337C1140.85 95.7109 1141.11 96.0881 1141.45 96.3651C1141.8 96.6378 1142.23 96.7741 1142.74 96.7741ZM1149.79 98.5V88.6818H1152.1V98.5H1149.79ZM1150.95 87.2884C1150.59 87.2884 1150.27 87.1669 1150.01 86.924C1149.74 86.6768 1149.61 86.3807 1149.61 86.0355C1149.61 85.6861 1149.74 85.3899 1150.01 85.147C1150.27 84.8999 1150.59 84.7763 1150.95 84.7763C1151.32 84.7763 1151.64 84.8999 1151.9 85.147C1152.16 85.3899 1152.29 85.6861 1152.29 86.0355C1152.29 86.3807 1152.16 86.6768 1151.9 86.924C1151.64 87.1669 1151.32 87.2884 1150.95 87.2884ZM1156.8 92.7472V98.5H1154.48V88.6818H1156.69V90.3501H1156.81C1157.03 89.8004 1157.39 89.3636 1157.89 89.0398C1158.39 88.7159 1159 88.554 1159.74 88.554C1160.41 88.554 1161 88.6989 1161.51 88.9886C1162.01 89.2784 1162.41 89.6982 1162.68 90.2479C1162.96 90.7976 1163.1 91.4645 1163.1 92.2486V98.5H1160.78V92.6065C1160.78 91.9503 1160.61 91.4368 1160.27 91.0661C1159.94 90.6953 1159.47 90.5099 1158.87 90.5099C1158.47 90.5099 1158.11 90.5994 1157.79 90.7784C1157.48 90.9531 1157.24 91.2067 1157.06 91.5391C1156.88 91.8714 1156.8 92.2741 1156.8 92.7472ZM1169.72 102.386C1168.89 102.386 1168.18 102.273 1167.58 102.048C1166.98 101.826 1166.5 101.528 1166.14 101.153C1165.78 100.778 1165.53 100.362 1165.39 99.9062L1167.47 99.4013C1167.56 99.593 1167.7 99.7827 1167.88 99.9702C1168.06 100.162 1168.3 100.32 1168.6 100.443C1168.91 100.571 1169.29 100.635 1169.76 100.635C1170.42 100.635 1170.96 100.475 1171.39 100.156C1171.82 99.8402 1172.03 99.3203 1172.03 98.5959V96.7358H1171.92C1171.8 96.9744 1171.63 97.2195 1171.4 97.4709C1171.17 97.7223 1170.87 97.9332 1170.49 98.1037C1170.12 98.2741 1169.66 98.3594 1169.09 98.3594C1168.34 98.3594 1167.66 98.1825 1167.04 97.8288C1166.43 97.4709 1165.95 96.9382 1165.58 96.2308C1165.23 95.5192 1165.05 94.6286 1165.05 93.5589C1165.05 92.4808 1165.23 91.571 1165.58 90.8295C1165.95 90.0838 1166.44 89.5192 1167.05 89.1357C1167.66 88.7479 1168.35 88.554 1169.1 88.554C1169.68 88.554 1170.15 88.652 1170.52 88.848C1170.89 89.0398 1171.19 89.272 1171.41 89.5447C1171.64 89.8132 1171.8 90.0668 1171.92 90.3054H1172.05V88.6818H1174.33V98.6598C1174.33 99.4993 1174.13 100.194 1173.73 100.744C1173.33 101.293 1172.78 101.705 1172.09 101.977C1171.39 102.25 1170.6 102.386 1169.72 102.386ZM1169.74 96.544C1170.23 96.544 1170.65 96.4247 1170.99 96.1861C1171.34 95.9474 1171.6 95.6044 1171.78 95.157C1171.96 94.7095 1172.05 94.1726 1172.05 93.5462C1172.05 92.9283 1171.96 92.3871 1171.78 91.9226C1171.6 91.4581 1171.34 91.098 1171 90.8423C1170.66 90.5824 1170.24 90.4524 1169.74 90.4524C1169.22 90.4524 1168.79 90.5866 1168.45 90.8551C1168.1 91.1236 1167.84 91.4922 1167.67 91.9609C1167.49 92.4254 1167.41 92.9538 1167.41 93.5462C1167.41 94.147 1167.49 94.6733 1167.67 95.125C1167.85 95.5724 1168.11 95.9219 1168.45 96.1733C1168.8 96.4205 1169.23 96.544 1169.74 96.544Z" fill="#35C4EC"/>
<path d="M1034.42 104.167C1033.97 104.167 1033.59 104.015 1033.29 103.711C1032.99 103.408 1032.83 103.032 1032.83 102.583V93.0833L1023.37 81.0104C1023 80.5618 1022.95 80.0868 1023.21 79.5854C1023.48 79.084 1023.89 78.8333 1024.44 78.8333H1047.56C1048.11 78.8333 1048.52 79.084 1048.79 79.5854C1049.05 80.0868 1049 80.5618 1048.63 81.0104L1039.17 93.0833V102.583C1039.17 103.032 1039.01 103.408 1038.71 103.711C1038.41 104.015 1038.03 104.167 1037.58 104.167H1034.42ZM1036 93.2416L1045.5 81.2083H1026.5L1036 93.2416Z" fill="#35C4EC"/>
<path d="M1187.75 101V98.625H1197.25V101H1187.75ZM1187.75 92.6875V90.3125H1206.75V92.6875H1187.75ZM1187.75 84.375V82H1216.25V84.375H1187.75Z" fill="#35C4EC"/>
<defs>
<filter id="filter0_d_37_490" x="135.5" y="22" width="1142" height="386" filterUnits="userSpaceOnUse" color-interpolation-filters="sRGB">
<feFlood flood-opacity="0" result="BackgroundImageFix"/>
<feColorMatrix in="SourceAlpha" type="matrix" values="0 0 0 0 0 0 0 0 0 0 0 0 0 0 0 0 0 0 127 0" result="hardAlpha"/>
<feMorphology radius="0.5" operator="dilate" in="SourceAlpha" result="effect1_dropShadow_37_490"/>
<feOffset/>
<feGaussianBlur stdDeviation="10"/>
<feComposite in2="hardAlpha" operator="out"/>
<feColorMatrix type="matrix" values="0 0 0 0 0 0 0 0 0 0 0 0 0 0 0 0 0 0 0.25 0"/>
<feBlend mode="normal" in2="BackgroundImageFix" result="effect1_dropShadow_37_490"/>
<feBlend mode="normal" in="SourceGraphic" in2="effect1_dropShadow_37_490" result="shape"/>
</filter>
<filter id="filter1_d_37_490" x="881" y="63.5" width="182" height="59" filterUnits="userSpaceOnUse" color-interpolation-filters="sRGB">
<feFlood flood-opacity="0" result="BackgroundImageFix"/>
<feColorMatrix in="SourceAlpha" type="matrix" values="0 0 0 0 0 0 0 0 0 0 0 0 0 0 0 0 0 0 127 0" result="hardAlpha"/>
<feOffset dy="2"/>
<feGaussianBlur stdDeviation="2"/>
<feComposite in2="hardAlpha" operator="out"/>
<feColorMatrix type="matrix" values="0 0 0 0 0 0 0 0 0 0 0 0 0 0 0 0 0 0 0.25 0"/>
<feBlend mode="normal" in2="BackgroundImageFix" result="effect1_dropShadow_37_490"/>
<feBlend mode="normal" in="SourceGraphic" in2="effect1_dropShadow_37_490" result="shape"/>
</filter>
<filter id="filter2_d_37_490" x="1066" y="65.5" width="166" height="59" filterUnits="userSpaceOnUse" color-interpolation-filters="sRGB">
<feFlood flood-opacity="0" result="BackgroundImageFix"/>
<feColorMatrix in="SourceAlpha" type="matrix" values="0 0 0 0 0 0 0 0 0 0 0 0 0 0 0 0 0 0 127 0" result="hardAlpha"/>
<feOffset dy="2"/>
<feGaussianBlur stdDeviation="2"/>
<feComposite in2="hardAlpha" operator="out"/>
<feColorMatrix type="matrix" values="0 0 0 0 0 0 0 0 0 0 0 0 0 0 0 0 0 0 0.25 0"/>
<feBlend mode="normal" in2="BackgroundImageFix" result="effect1_dropShadow_37_490"/>
<feBlend mode="normal" in="SourceGraphic" in2="effect1_dropShadow_37_490" result="shape"/>
</filter>
<filter id="filter3_d_37_490" x="350" y="64" width="521" height="59" filterUnits="userSpaceOnUse" color-interpolation-filters="sRGB">
<feFlood flood-opacity="0" result="BackgroundImageFix"/>
<feColorMatrix in="SourceAlpha" type="matrix" values="0 0 0 0 0 0 0 0 0 0 0 0 0 0 0 0 0 0 127 0" result="hardAlpha"/>
<feOffset dy="2"/>
<feGaussianBlur stdDeviation="2"/>
<feComposite in2="hardAlpha" operator="out"/>
<feColorMatrix type="matrix" values="0 0 0 0 0 0 0 0 0 0 0 0 0 0 0 0 0 0 0.25 0"/>
<feBlend mode="normal" in2="BackgroundImageFix" result="effect1_dropShadow_37_490"/>
<feBlend mode="normal" in="SourceGraphic" in2="effect1_dropShadow_37_490" result="shape"/>
</filter>
</defs>
</svg>
